<?xml version="1.0" encoding="UTF-8" standalone="no"?>
<svg width="94px" height="119px" viewBox="0 0 94 119" version="1.1" xmlns="http://www.w3.org/2000/svg" xmlns:xlink="http://www.w3.org/1999/xlink">
    <!-- Generator: Sketch 3.8.3 (29802) - http://www.bohemiancoding.com/sketch -->
    <title>anna</title>
    <desc>Created with Sketch.</desc>
    <defs></defs>
    <g id="Page-1" stroke="none" stroke-width="1" fill="none" fill-rule="evenodd">
        <g id="HeroIcons_with_names" transform="translate(-300.000000, -391.000000)" fill="#FFFFFF">
            <g id="Layer_1">
                <g id="anna" transform="translate(300.000000, 391.000000)">
                    <polygon id="Shape" points="43.313 75.324 57.122 75.324 57.122 79.498 43.313 79.498"></polygon>
                    <path d="M79.179,15.107 L79.093,14.716 C78.819,14.116 72.122,0.093 51.525,0.093 L50.76,0.099 C29.114,0.466 14.411,7.712 7.994,42.658 C7.481,45.447 6.407,48.783 5.269,52.314 C0.284,67.783 -6.499,88.9 21.78,99.105 L21.78,105.023 L21.084,105.023 L21.084,118.828 L25.259,118.828 L25.259,105.023 L24.563,105.023 L24.563,100.019 C26.072,100.431 27.363,100.642 28.465,100.642 C30.369,100.642 31.782,100.023 32.665,98.804 C34.657,96.052 33.363,90.999 31.137,84.077 C34.24,87.126 38.077,90.155 42.691,92.462 C45.082,93.655 47.648,94.253 50.215,94.253 C52.782,94.253 55.35,93.655 57.742,92.462 C67.035,87.814 73.217,80.261 76.438,75.495 L76.438,81.464 C74.584,88.96 74.598,94.181 76.438,97.046 L76.438,105.036 L75.742,105.036 L75.742,118.843 L79.917,118.843 L79.917,105.036 L79.221,105.036 L79.221,99.233 C79.764,99.405 80.335,99.526 80.958,99.526 C83.375,99.526 86.351,98.12 88.92,95.768 C91.493,93.411 93.03,90.7 93.03,88.518 C93.029,73.197 91.891,28.598 79.179,15.107 L79.179,15.107 Z M56.496,89.973 C52.506,91.969 47.928,91.969 43.935,89.973 C38.496,87.252 34.143,83.391 30.897,79.776 L30.901,70.854 L37.278,58.108 L44.704,58.108 L44.704,56.715 C44.704,53.846 42.971,48.422 36.411,48.422 L28.118,48.422 L28.118,49.813 C28.118,52.34 29.473,56.842 34.28,57.881 L29.133,68.164 L25.5,64.531 C24.99,61.888 24.631,59.252 24.562,56.677 C24.266,45.827 28.093,39.552 31.355,36.198 C35.453,31.987 40.358,30.495 43.313,30.495 C52.899,30.495 66.402,27.161 73.817,22.38 C76.459,29.526 79.438,40.571 79.639,54.36 L78.269,61.21 L69.535,69.946 L69.531,79.778 C66.286,83.391 61.933,87.254 56.496,89.973 L56.496,89.973 Z M36.411,55.324 C32.662,55.324 31.462,52.853 31.08,51.205 L36.411,51.205 C40.158,51.205 41.358,53.674 41.742,55.324 L36.411,55.324 L36.411,55.324 Z" id="Shape"></path>
                    <path d="M72.316,49.813 L72.316,48.422 L64.023,48.422 C57.462,48.422 55.73,53.846 55.73,56.715 L55.73,58.108 L64.023,58.108 C70.583,58.107 72.316,52.682 72.316,49.813 L72.316,49.813 Z M64.023,55.324 L58.692,55.324 C59.075,53.674 60.275,51.205 64.023,51.205 L69.354,51.205 C68.97,52.854 67.77,55.324 64.023,55.324 L64.023,55.324 Z" id="Shape"></path>
                </g>
            </g>
        </g>
    </g>
</svg>