<?xml version="1.0" encoding="UTF-8" standalone="no"?>
<svg width="66px" height="94px" viewBox="0 0 66 94" version="1.1" xmlns="http://www.w3.org/2000/svg" xmlns:xlink="http://www.w3.org/1999/xlink">
    <!-- Generator: Sketch 3.8.3 (29802) - http://www.bohemiancoding.com/sketch -->
    <title>bastion</title>
    <desc>Created with Sketch.</desc>
    <defs></defs>
    <g id="Page-1" stroke="none" stroke-width="1" fill="none" fill-rule="evenodd">
        <g id="HeroIcons_with_names" transform="translate(-17.000000, -30.000000)" fill="#FFFFFF">
            <g id="Layer_1">
                <g id="bastion" transform="translate(17.000000, 30.000000)">
                    <polygon id="Shape" points="29.16 16.095 36.064 16.095 36.064 57.513 29.16 57.513"></polygon>
                    <path d="M58.746,14.967 C58.183,10.547 54.44,7.106 49.868,7.106 L44.355,7.106 L44.355,2.29 C44.355,1.52 43.733,0.898 42.963,0.898 L22.256,0.898 C21.486,0.898 20.864,1.521 20.864,2.29 L20.864,7.106 L15.354,7.106 C10.783,7.106 7.042,10.547 6.479,14.967 C2.858,15.859 0.156,19.11 0.156,23.013 L0.156,71.322 C0.156,75.212 2.858,78.46 6.479,79.352 C7.042,83.774 10.783,87.216 15.354,87.216 L20.168,87.216 L20.168,91.788 C20.168,92.941 21.104,93.876 22.256,93.876 L42.966,93.876 C44.118,93.876 45.053,92.941 45.053,91.788 L45.053,87.216 L49.867,87.216 C54.439,87.216 58.182,83.775 58.745,79.352 C62.366,78.46 65.068,75.206 65.065,71.295 L65.068,23 C65.068,19.107 62.366,15.859 58.746,14.967 L58.746,14.967 Z M6.365,76.411 C4.361,75.582 2.94,73.617 2.94,71.309 L2.94,23 C2.94,20.703 4.36,18.738 6.365,17.909 L6.365,76.411 L6.365,76.411 Z M23.647,9.194 L23.647,3.681 L41.571,3.681 L41.571,9.194 L41.571,63.026 L23.647,63.026 L23.647,9.194 L23.647,9.194 Z M54.685,78.224 C54.685,80.88 52.524,83.041 49.868,83.041 L45.054,83.041 L45.054,78.469 C45.054,77.317 44.119,76.382 42.967,76.382 L22.257,76.382 C21.105,76.382 20.169,77.317 20.169,78.469 L20.169,83.041 L15.355,83.041 C12.701,83.041 10.541,80.88 10.541,78.224 L10.541,16.095 C10.541,13.439 12.701,11.281 15.355,11.281 L20.865,11.281 L20.865,64.418 L20.865,65.81 L22.257,65.81 L42.965,65.81 L44.357,65.81 L44.357,64.418 L44.357,11.281 L49.87,11.281 C52.526,11.281 54.687,13.439 54.687,16.095 L54.687,78.224 L54.685,78.224 Z M58.86,76.411 L58.86,17.909 C60.865,18.738 62.285,20.706 62.282,23.027 L62.284,71.322 C62.285,73.619 60.865,75.584 58.86,76.411 L58.86,76.411 Z" id="Shape"></path>
                </g>
            </g>
        </g>
    </g>
</svg>