<?xml version="1.0" encoding="UTF-8" standalone="no"?>
<svg width="101px" height="106px" viewBox="0 0 101 106" version="1.1" xmlns="http://www.w3.org/2000/svg" xmlns:xlink="http://www.w3.org/1999/xlink">
    <!-- Generator: Sketch 3.8.3 (29802) - http://www.bohemiancoding.com/sketch -->
    <title>dva</title>
    <desc>Created with Sketch.</desc>
    <defs></defs>
    <g id="Page-1" stroke="none" stroke-width="1" fill="none" fill-rule="evenodd">
        <g id="HeroIcons_with_names" transform="translate(-105.000000, -24.000000)" fill="#FFFFFF">
            <g id="Layer_1">
                <g id="dva" transform="translate(105.000000, 24.000000)">
                    <polygon id="Shape" points="43.586 76.793 57.395 76.793 57.395 79.576 43.586 79.576"></polygon>
                    <path d="M93.776,65.314 C94.067,64.732 100.901,50.981 100.901,43.671 L100.901,42.807 L100.289,42.195 C95.877,37.783 93.79,35.97 92.643,35.217 L100.103,16.572 C100.368,15.911 100.089,15.156 99.458,14.824 C98.824,14.49 98.047,14.691 97.652,15.283 L86.931,31.37 C86.867,28.423 86.303,25.553 85.007,22.959 C84.277,21.5 83.455,20.132 82.588,18.828 C81.737,15.892 80.697,12.538 79.424,8.713 L79.32,8.4 L79.088,8.169 C76.674,5.755 70.638,4.127 63.327,3.271 C59.334,1.735 55.017,0.857 50.492,0.857 C45.965,0.857 41.647,1.735 37.654,3.271 C30.345,4.127 24.31,5.755 21.897,8.169 L21.636,8.53 C16.901,18 15.351,27.338 14.842,32.554 L3.329,15.282 C2.935,14.69 2.156,14.489 1.523,14.823 C0.893,15.155 0.614,15.91 0.879,16.571 L8.148,34.74 L0.084,42.805 L0.084,43.669 C0.084,50.979 6.918,64.73 7.209,65.312 L10.009,68.136 C8.877,72.295 8.258,77.821 9.073,85.087 C10.62,98.86 7.214,103.454 4.654,104.998 C11.179,102.761 29.58,97.643 30.983,82.336 C32.27,83.624 33.616,84.916 34.979,86.125 C40.028,90.604 44.384,93.38 50.495,93.38 C56.002,93.38 62.039,90.393 68.441,84.538 C79.059,108.785 98.815,105.795 98.815,105.795 C85.012,98.89 85.012,85.087 85.012,85.087 C91.911,98.893 98.815,91.989 98.815,91.989 C91.908,88.537 88.478,79.912 86.752,72.143 L93.348,65.894 L93.776,65.314 L93.776,65.314 Z M10.79,63.145 C8.936,59.377 4.72,49.839 4.291,44.5 L9.848,38.944 C10.173,38.999 10.577,39.112 10.994,39.265 L19.021,71.378 L10.79,63.145 L10.79,63.145 Z M76.893,9.927 C77.25,11.006 77.582,12.028 77.903,13.031 C75.741,10.81 73.436,8.916 71.124,7.38 C73.709,8.065 75.735,8.911 76.893,9.927 L76.893,9.927 Z M24.016,9.992 C25.174,8.935 27.263,8.062 29.943,7.361 C26.763,9.592 23.975,12.33 21.663,15.447 C22.339,13.651 23.111,11.822 24.016,9.992 L24.016,9.992 Z M22.975,43.565 C23.188,39.189 23.713,34.992 24.265,31.534 C28.352,37.365 23.701,42.785 22.975,43.565 L22.975,43.565 Z M64.293,64.385 L75.014,64.382 C73.76,66.932 72.705,69.234 71.857,71.284 L64.294,71.286 L70.641,74.455 C69.876,76.632 69.414,78.434 69.267,79.846 C68.514,80.626 67.735,81.406 66.908,82.178 C60.901,87.767 55.377,90.599 50.491,90.599 C45.238,90.599 41.502,88.196 36.824,84.045 C34.67,82.134 32.525,79.984 30.62,77.964 C30.404,77.024 30.083,75.955 29.683,74.786 L36.688,71.285 L28.354,71.283 C27.504,69.233 26.451,66.931 25.195,64.381 L36.688,64.384 L23.824,57.95 C22.904,53.494 22.743,48.482 22.972,43.665 C43.563,43.594 36.683,22.963 36.683,22.963 C43.587,36.769 36.683,43.671 36.683,43.671 C43.587,43.671 57.396,36.767 57.396,29.865 C57.396,36.764 50.492,43.671 50.492,43.671 C68.153,43.671 70.743,28.648 71.125,24.214 C71.447,24.79 71.77,25.353 72.089,26.008 C73.697,32.013 76.466,45.305 71.2,50.573 C71.2,50.573 74.273,49.026 77.517,46.68 C77.864,49.931 78.055,53.538 78.082,57.469 L64.293,64.385 L64.293,64.385 Z M81.826,71.055 L88.87,39.363 C89.518,39.072 90.16,38.939 90.618,38.887 C91.243,39.357 92.877,40.719 96.689,44.503 C96.26,49.828 92.063,59.334 90.202,63.117 L81.826,71.055 L81.826,71.055 Z" id="Shape"></path>
                </g>
            </g>
        </g>
    </g>
</svg>