<?xml version="1.0" encoding="UTF-8" standalone="no"?>
<svg width="89px" height="131px" viewBox="0 0 89 131" version="1.1" xmlns="http://www.w3.org/2000/svg" xmlns:xlink="http://www.w3.org/1999/xlink">
    <!-- Generator: Sketch 3.8.3 (29802) - http://www.bohemiancoding.com/sketch -->
    <title>genji</title>
    <desc>Created with Sketch.</desc>
    <defs></defs>
    <g id="Page-1" stroke="none" stroke-width="1" fill="none" fill-rule="evenodd">
        <g id="HeroIcons_with_names" transform="translate(-226.000000, -12.000000)" fill="#FFFFFF">
            <g id="Layer_1">
                <path d="M314.136,64.216 L313.068,63.148 L313.068,60.856 L313.068,50.41 L306.032,22.083 L296.479,12.535 L296.479,35.022 C290.162,27.574 280.797,22.798 270.259,22.798 C259.721,22.798 250.356,27.574 244.039,35.022 L244.039,12.535 L234.486,22.083 L227.492,50.073 L227.466,60.873 L227.45,60.856 L227.45,63.148 L226.382,64.216 L227.45,65.284 L227.45,71.449 L235.073,86.699 L240.589,119.782 C240.677,120.312 240.965,120.788 241.395,121.109 L269.007,141.819 C269.378,142.099 269.82,142.237 270.26,142.237 C270.7,142.237 271.142,142.098 271.513,141.819 L299.125,121.109 C299.554,120.788 299.842,120.313 299.931,119.782 L305.445,86.701 L313.07,71.449 L313.07,67.577 L313.07,65.284 L314.136,64.216 L314.136,64.216 Z M304.054,69.378 L299.053,69.378 C301.529,65.42 303.427,62.009 304.662,59.659 L309.217,64.216 L304.054,69.378 L304.054,69.378 Z M303.518,23.507 L310.285,50.581 L310.285,60.363 L306.316,56.393 C306.321,56.379 306.342,56.338 306.346,56.329 L306.95,55.047 L299.263,49.281 L299.263,19.251 L303.518,23.507 L303.518,23.507 Z M271.65,32.921 L302.571,56.113 C299.801,61.579 288.058,83.379 271.65,95.582 L271.65,32.921 L271.65,32.921 Z M297.87,78.022 L301.29,74.603 L302.407,80.186 L302.223,80.645 L301.806,80.729 L301.934,81.366 L289.834,111.619 L271.65,123.745 L271.65,104.668 C291.247,91.192 297.87,78.022 297.87,78.022 L297.87,78.022 Z M238.108,80.19 L239.226,74.603 L242.646,78.022 C242.646,78.022 249.265,91.189 268.866,104.666 L268.866,123.746 L250.68,111.62 L238.108,80.19 L238.108,80.19 Z M235.851,59.664 C237.088,62.014 238.984,65.423 241.46,69.378 L236.462,69.378 L231.3,64.216 L235.851,59.664 L235.851,59.664 Z M268.867,32.916 L268.867,95.585 C252.459,83.383 240.711,61.58 237.94,56.113 L268.867,32.916 L268.867,32.916 Z M236.999,23.507 L241.254,19.252 L241.254,49.278 L233.562,55.048 L234.166,56.33 C234.171,56.339 234.191,56.383 234.198,56.396 L230.232,60.363 L230.232,50.581 L236.999,23.507 L236.999,23.507 Z M230.232,68.068 L235.022,72.858 L236.737,72.858 L235.173,80.675 L230.233,70.792 L230.233,68.068 L230.232,68.068 Z M295.948,118.271 L270.258,137.541 L244.568,118.271 L240.442,93.519 L248.416,113.457 L270.258,128.016 L292.098,113.457 L300.076,93.511 L295.948,118.271 L295.948,118.271 Z M305.708,79.946 L305.217,80.046 L303.779,72.858 L305.494,72.858 L310.284,68.068 L310.284,70.792 L305.708,79.946 L305.708,79.946 Z" id="genji"></path>
            </g>
        </g>
    </g>
</svg>