<?xml version="1.0" encoding="UTF-8" standalone="no"?>
<svg width="97px" height="126px" viewBox="0 0 97 126" version="1.1" xmlns="http://www.w3.org/2000/svg" xmlns:xlink="http://www.w3.org/1999/xlink">
    <!-- Generator: Sketch 3.8.3 (29802) - http://www.bohemiancoding.com/sketch -->
    <title>hanzo</title>
    <desc>Created with Sketch.</desc>
    <defs></defs>
    <g id="Page-1" stroke="none" stroke-width="1" fill="none" fill-rule="evenodd">
        <g id="HeroIcons_with_names" transform="translate(-339.000000, -7.000000)" fill="#FFFFFF">
            <g id="Layer_1">
                <g id="hanzo" transform="translate(339.000000, 7.000000)">
                    <path d="M96.77,56.092 L89.866,56.092 L89.866,42.283 C89.866,42.283 86.385,45.765 82.917,48.358 C82.575,38.233 75.932,25.674 63.64,19.772 C65.218,17.271 67.008,12.52 62.255,7.767 C62.255,7.767 60.245,9.789 58.394,12.726 C58.458,9.598 57.745,5.659 55.349,0.868 C50.593,5.622 47.502,9.539 45.46,12.656 C43.473,9.997 40.18,7.77 34.644,7.773 C34.644,7.773 34.651,12.386 38.418,17.837 C22.844,22.347 14.367,36.899 13.978,48.357 C10.512,45.765 7.031,42.284 7.031,42.284 L7.031,56.093 L0.127,56.093 C0.127,56.093 3.653,66.534 10.652,72.57 C4.779,86.158 7.034,97.514 7.034,97.514 C8.658,91.016 11.821,84.908 15.693,79.355 L18.776,97.851 C18.848,98.281 19.05,98.678 19.359,98.985 L37.601,117.231 L41.545,125.121 L48.449,125.121 L55.351,125.121 L59.304,117.218 L77.535,98.986 C77.844,98.679 78.046,98.282 78.118,97.852 L81.849,75.455 C91.78,70.935 96.77,56.092 96.77,56.092 L96.77,56.092 Z M16.244,57.269 L25.954,52.414 C22.352,55.457 19.397,58.606 16.993,61.764 L16.244,57.269 L16.244,57.269 Z M52.884,115.752 C51.873,114.741 50.459,113.328 48.447,111.316 C46.433,113.328 45.02,114.741 44.009,115.752 L40.24,113.968 L30.688,104.413 L35.506,99.595 L61.389,99.595 L66.203,104.41 L56.641,113.973 L52.884,115.752 L52.884,115.752 Z M74.107,96.504 L69.155,101.458 L63.118,95.419 L33.777,95.419 L27.737,101.459 L22.781,96.504 L19.155,74.744 C21.903,71.345 24.851,68.208 27.789,65.378 L40.565,71.767 L42.433,68.032 L31.057,62.343 C40.255,54.111 48.447,49.187 48.447,49.187 L53.262,44.37 L54.855,44.37 L80.645,57.268 L74.107,96.504 L74.107,96.504 Z" id="Shape"></path>
                    <polygon id="Shape" points="27.694 75.408 40.948 75.408 40.948 78.192 27.694 78.192"></polygon>
                    <polygon id="Shape" points="55.306 75.408 69.156 75.408 69.156 78.192 55.306 78.192"></polygon>
                    <polygon id="Shape" points="56.231 71.743 54.363 68.007 68.171 61.104 70.038 64.84"></polygon>
                    <polygon id="Shape" points="41.543 103.02 55.349 103.02 55.349 105.803 41.543 105.803"></polygon>
                </g>
            </g>
        </g>
    </g>
</svg>