<?xml version="1.0" encoding="UTF-8" standalone="no"?>
<svg width="93px" height="141px" viewBox="0 0 93 141" version="1.1" xmlns="http://www.w3.org/2000/svg" xmlns:xlink="http://www.w3.org/1999/xlink">
    <!-- Generator: Sketch 3.8.3 (29802) - http://www.bohemiancoding.com/sketch -->
    <title>junkrat</title>
    <desc>Created with Sketch.</desc>
    <defs></defs>
    <g id="Page-1" stroke="none" stroke-width="1" fill="none" fill-rule="evenodd">
        <g id="HeroIcons_with_names" transform="translate(-446.000000, 0.000000)" fill="#FFFFFF">
            <g id="Layer_1">
                <g id="junkrat" transform="translate(446.000000, 0.000000)">
                    <path id="Shape"></path>
                    <path d="M32.553,49.054 L39.457,49.054 C45.929,49.054 46.334,55.12 46.359,55.881 C46.346,55.064 45.922,42.37 32.553,49.054 L32.553,49.054 Z" id="Shape"></path>
                    <path d="M24.344,79.346 C24.344,82.017 26.517,84.19 29.188,84.19 C31.323,84.19 33.119,82.793 33.761,80.871 L39.541,82.798 L25.735,68.992 L18.831,75.893 L24.613,77.82 C24.452,78.304 24.344,78.811 24.344,79.346 L24.344,79.346 Z M29.188,81.407 C28.051,81.407 27.127,80.483 27.127,79.346 C27.127,78.209 28.051,77.286 29.188,77.286 C30.324,77.286 31.249,78.21 31.249,79.346 C31.249,80.482 30.323,81.407 29.188,81.407 L29.188,81.407 Z" id="Shape"></path>
                    <path d="M53.347,82.798 L59.129,80.87 C59.772,82.792 61.567,84.19 63.701,84.19 C66.371,84.19 68.545,82.017 68.545,79.346 C68.545,78.811 68.437,78.303 68.274,77.821 L74.054,75.894 L67.153,68.993 L53.347,82.798 L53.347,82.798 Z M63.701,81.407 C62.566,81.407 61.643,80.483 61.643,79.346 C61.643,78.209 62.566,77.286 63.701,77.286 C64.837,77.286 65.762,78.21 65.762,79.346 C65.762,80.482 64.837,81.407 63.701,81.407 L63.701,81.407 Z" id="Shape"></path>
                    <path d="M66.172,95.694 C63.275,98.592 55.531,100.465 46.445,100.465 C37.359,100.465 29.617,98.592 26.718,95.694 L22.03,91.004 L22.031,91.007 L22.028,91.004 L24.438,97.184 C24.864,98.274 25.291,99.333 25.717,100.359 C27.86,105.504 30.013,109.78 32.188,113.229 C32.193,113.236 32.197,113.244 32.202,113.251 C32.568,113.831 32.935,114.376 33.303,114.908 C33.386,115.029 33.469,115.158 33.552,115.276 C33.869,115.726 34.188,116.145 34.506,116.559 C34.608,116.692 34.711,116.843 34.813,116.972 L35.029,117.246 C35.058,117.281 35.087,117.319 35.115,117.355 L36.097,118.599 L36.137,118.53 C39.409,122.152 42.744,123.958 46.184,123.958 C49.71,123.958 53.169,122.046 56.603,118.221 L56.635,118.277 L57.325,117.408 C57.481,117.222 57.637,117.015 57.793,116.821 L57.9,116.686 C57.915,116.667 57.929,116.645 57.945,116.626 C58.367,116.092 58.789,115.532 59.21,114.939 C59.216,114.933 59.221,114.926 59.226,114.919 C61.422,111.828 63.613,107.949 65.808,103.24 C65.857,103.134 65.906,103.02 65.956,102.912 C66.342,102.077 66.727,101.228 67.115,100.342 C67.393,99.706 67.671,99.037 67.948,98.377 C68.112,97.983 68.277,97.609 68.443,97.207 L71.074,90.792 L71.072,90.793 L66.172,95.694 L66.172,95.694 Z M49.095,103.187 C50.484,103.128 51.902,103.031 53.319,102.873 C55.338,102.65 57.334,102.308 59.223,101.855 C59.521,101.783 59.827,101.723 60.119,101.644 C60.537,101.534 60.931,101.402 61.335,101.277 C61.619,101.19 61.915,101.112 62.191,101.019 C62.463,100.925 62.711,100.814 62.974,100.713 C63.354,100.569 63.745,100.432 64.103,100.274 C63.506,101.608 62.908,102.879 62.313,104.09 C62.3,104.113 62.29,104.136 62.279,104.159 C60.474,107.815 58.674,110.904 56.891,113.398 C54.088,109.539 50.363,107.365 46.445,107.365 C42.424,107.365 38.631,109.629 35.808,113.648 C34.035,111.128 32.253,107.976 30.476,104.224 C30.464,104.198 30.452,104.171 30.44,104.145 C29.853,102.903 29.267,101.598 28.682,100.227 C29.797,100.727 31.034,101.148 32.335,101.514 C32.452,101.547 32.561,101.587 32.68,101.618 C32.925,101.685 33.187,101.736 33.438,101.798 C37.57,102.816 42.286,103.247 46.445,103.247 C47.306,103.248 48.194,103.224 49.095,103.187 L49.095,103.187 Z" id="Shape"></path>
                    <path d="M87.828,35.246 C87.828,38.801 86.905,40.972 85.546,42.489 C83.536,39 80.927,34.084 80.927,21.443 C76.087,23.862 72.114,28.843 69.547,34.568 C66.729,32.255 63.553,30.367 60.126,28.97 C60.133,28.762 60.164,28.554 60.164,28.345 C60.164,14.539 46.358,21.444 53.26,0.733 C53.26,0.733 37.727,11.1 42.56,22.85 C41.581,22.32 40.506,21.843 39.305,21.443 C24.661,16.561 25.499,7.634 25.499,7.634 C25.499,7.634 19.914,18.654 28.66,30.845 C26.729,31.916 24.903,33.151 23.207,34.54 C20.64,28.828 16.674,23.857 11.842,21.442 C11.842,34.083 9.233,38.999 7.223,42.488 C5.864,40.971 4.941,38.8 4.941,35.245 C4.941,35.245 -6.418,52.291 6.932,70.916 C5.835,72.483 5.274,74.562 5.274,76.631 C5.274,80.309 7.046,84.026 10.453,84.824 C10.454,86.683 10.468,89.448 10.527,90.544 C10.803,95.604 12.052,100.039 17.539,107.613 L31.371,131.603 C34.667,136.917 39.892,140.043 45.71,140.179 C45.845,140.182 45.978,140.183 46.11,140.183 C52.058,140.183 57.582,137.091 61.371,131.563 L75.1,107.733 C80.664,100.038 81.913,95.603 82.189,90.543 C82.249,89.445 82.262,86.681 82.264,84.82 C83.733,84.475 84.999,83.574 85.915,82.198 C86.9,80.718 87.443,78.755 87.443,76.673 C87.443,74.614 86.881,72.545 85.783,70.985 C99.214,52.336 87.828,35.246 87.828,35.246 L87.828,35.246 Z M84.658,76.676 C84.658,79.336 83.473,82.198 80.872,82.198 L79.48,82.198 L79.48,83.59 C79.48,85.093 79.48,89.084 79.41,90.394 C79.161,94.937 78.007,98.964 72.764,106.227 L59.017,130.083 C55.744,134.851 50.89,137.561 45.774,137.398 C40.915,137.285 36.526,134.639 33.757,130.177 L19.871,106.106 C14.706,98.965 13.552,94.938 13.304,90.395 C13.233,89.084 13.233,85.094 13.233,83.591 L13.233,82.199 L11.841,82.199 C9.241,82.199 8.056,79.314 8.056,76.634 C8.056,75.465 8.297,74.269 8.767,73.278 C9.701,74.406 10.71,75.537 11.841,76.668 C11.841,76.668 15.42,69.493 17.422,62.901 C18.296,62.92 18.855,62.859 18.855,62.859 C26.682,58.946 27.807,48.379 24.808,38.701 C26.797,36.925 28.993,35.381 31.374,34.133 C31.721,34.506 32.022,34.875 32.399,35.248 C46.357,49.057 46.357,49.057 46.36,55.961 C46.36,55.961 57.037,45.27 59.604,33.296 C62.669,34.675 65.472,36.52 67.946,38.735 C64.958,48.405 66.093,58.951 73.912,62.86 C73.912,62.86 74.471,62.92 75.342,62.902 C77.346,69.494 80.926,76.669 80.926,76.669 C82.034,75.56 83.026,74.451 83.945,73.345 C84.417,74.326 84.658,75.514 84.658,76.676 L84.658,76.676 Z" id="Shape"></path>
                    <path d="M38.39,91.387 L38.701,91.693 C40.077,93.049 41.217,94.141 42.21,94.977 C43.876,96.393 45.132,97.099 46.38,97.099 C48.28,97.099 50.168,95.474 53.482,92.275 L54.311,91.476 L52.38,89.47 L52.372,89.478 L52.291,89.394 L51.459,90.196 C48.832,92.732 47.304,94.241 46.247,94.224 C45.727,94.204 45.044,93.777 44.149,93.023 C43.246,92.251 42.132,91.155 40.743,89.787 L40.434,89.483 L40.429,89.49 L40.345,89.407 L38.39,91.387 L38.39,91.387 Z" id="Shape"></path>
                </g>
            </g>
        </g>
    </g>
</svg>