<?xml version="1.0" encoding="UTF-8" standalone="no"?>
<svg width="101px" height="139px" viewBox="0 0 101 139" version="1.1" xmlns="http://www.w3.org/2000/svg" xmlns:xlink="http://www.w3.org/1999/xlink">
    <!-- Generator: Sketch 3.8.3 (29802) - http://www.bohemiancoding.com/sketch -->
    <title>lucio</title>
    <desc>Created with Sketch.</desc>
    <defs></defs>
    <g id="Page-1" stroke="none" stroke-width="1" fill="none" fill-rule="evenodd">
        <g id="HeroIcons_with_names" transform="translate(-550.000000, -8.000000)" fill="#FFFFFF">
            <g id="Layer_1">
                <g id="lucio" transform="translate(550.000000, 8.000000)">
                    <path d="M99.721,68.722 C99.158,68.159 98.597,67.654 98.037,67.176 C98.065,26.405 87.537,9.603 74.53,14.759 C73.776,12.862 72.881,11.315 71.815,10.249 C66.126,4.557 61.241,8.953 57.456,16.067 C57.716,8.323 56.474,0.737 50.586,0.737 C45.171,0.737 42.292,3.945 40.863,8.303 C35.561,3.142 29.797,1.715 25.363,11.441 L25.104,12.102 C24.708,12.897 24.378,13.824 24.107,14.853 C24.109,14.853 24.111,14.854 24.114,14.854 C17.269,13.521 11.042,16.328 7.386,27.294 C0.667,47.448 2.171,49.058 2.257,74.583 C1.109,74.587 0.178,75.52 0.178,76.669 L0.178,97.377 C0.178,98.53 1.113,99.465 2.265,99.465 L16.069,99.465 C16.354,99.465 16.625,99.406 16.872,99.302 C17.953,104.95 19.527,109.812 21.821,112.105 C24.05,114.337 26.36,117.417 28.592,120.393 C33.539,126.993 38.212,133.226 43.513,133.226 L57.322,133.226 C62.617,133.226 67.29,126.996 72.237,120.398 C74.471,117.419 76.782,114.336 79.013,112.105 C81.388,109.73 82.991,104.609 84.074,98.709 L84.931,98.709 C85.1,98.709 87.373,98.676 90.582,97.453 C90.368,115.834 88.379,123.597 78.197,123.597 C77.859,123.597 69.901,123.77 69.901,138.798 L72.684,138.798 C72.684,126.735 77.997,126.389 78.197,126.381 C92.971,126.381 93.311,111.168 93.382,96.165 C95.371,95.091 97.546,93.572 99.721,91.397 L100.129,90.989 L100.129,83.508 L100.129,76.604 L100.129,69.129 L99.721,68.722 L99.721,68.722 Z M57.43,92.553 C56.725,91.908 56.012,91.256 55.232,90.691 C55.223,90.686 55.215,90.679 55.208,90.673 C55.062,90.567 54.907,90.473 54.757,90.376 C54.636,90.297 54.519,90.211 54.394,90.137 C53.918,89.854 53.405,89.623 52.861,89.436 C52.764,89.403 52.674,89.36 52.577,89.33 C52.527,89.315 52.472,89.31 52.421,89.296 C51.806,89.128 51.148,89.023 50.419,89.023 C47.31,89.023 45.348,90.809 43.452,92.535 C41.536,94.28 39.725,95.927 36.61,95.927 L29.706,95.927 C23.559,95.927 17.295,89.66 17.295,83.51 C17.295,80.939 17.295,78.911 17.751,78.454 C18.091,78.111 19.319,78.026 20.997,78.004 C21.556,77.997 22.164,77.997 22.807,77.997 L78.032,77.997 C79.188,77.997 80.208,78.002 81.052,78.044 C81.146,78.048 81.264,78.048 81.353,78.054 C81.603,78.07 81.777,78.104 81.982,78.13 C82.141,78.15 82.339,78.161 82.467,78.19 C82.582,78.214 82.62,78.261 82.71,78.292 C82.849,78.342 83.018,78.384 83.087,78.454 C83.195,78.563 83.275,78.772 83.338,79.044 C83.341,79.058 83.347,79.06 83.351,79.074 C83.473,79.639 83.515,80.522 83.532,81.58 C83.54,82.174 83.543,82.817 83.543,83.51 C83.543,89.66 77.277,95.927 71.129,95.927 L64.225,95.927 C61.119,95.926 59.327,94.288 57.43,92.553 L57.43,92.553 Z M62.118,27.348 C62.573,27.804 62.573,29.834 62.573,32.406 C62.573,34.844 62.56,36.751 62.172,37.333 C62.116,37.41 62.039,37.478 61.938,37.537 C61.859,37.583 61.768,37.625 61.649,37.66 C61.541,37.695 61.416,37.726 61.274,37.752 C61.064,37.787 60.829,37.817 60.559,37.839 C60.455,37.847 60.364,37.857 60.249,37.863 C60.23,37.864 60.205,37.864 60.186,37.866 C59.857,37.884 59.495,37.894 59.107,37.901 C58.896,37.905 58.68,37.909 58.444,37.911 C58,37.913 57.55,37.916 57.06,37.916 L47.63,37.916 L43.254,37.916 C42.508,37.916 41.859,37.913 41.277,37.904 C41.146,37.901 41.042,37.894 40.919,37.892 C40.48,37.881 40.081,37.865 39.747,37.836 C39.623,37.826 39.529,37.809 39.418,37.796 C39.13,37.762 38.87,37.721 38.676,37.663 C38.61,37.644 38.569,37.617 38.513,37.594 C38.347,37.525 38.217,37.443 38.148,37.339 C37.756,36.761 37.744,34.849 37.744,32.399 C37.744,29.832 37.744,27.804 38.2,27.35 C38.566,26.982 39.987,26.914 41.865,26.9 L41.865,32.407 C41.865,33.176 42.488,33.799 43.257,33.799 L57.061,33.799 C57.831,33.799 58.453,33.176 58.453,32.407 L58.453,26.9 C60.33,26.912 61.749,26.979 62.118,27.348 L62.118,27.348 Z M55.669,31.013 L44.648,31.013 L44.648,26.892 L55.669,26.892 L55.669,31.013 L55.669,31.013 Z M97.345,75.213 L86.323,75.213 L86.323,64.355 C88.495,64.74 92.894,66.022 97.345,70.29 L97.345,75.213 L97.345,75.213 Z M30.18,43.485 L33.247,43.485 L28.72,48.011 C28.404,48.327 28.258,48.776 28.33,49.218 C28.402,49.66 28.682,50.04 29.082,50.24 L42.891,57.141 C43.089,57.24 43.302,57.288 43.512,57.288 C43.948,57.288 44.373,57.082 44.643,56.71 C45.04,56.155 44.98,55.394 44.497,54.912 L38.576,48.995 L44.497,43.077 C44.813,42.761 44.957,42.312 44.887,41.87 C44.837,41.56 44.658,41.306 44.432,41.098 L47.454,41.098 L48.449,42.093 L42.528,48.011 C42.267,48.272 42.121,48.625 42.121,48.995 C42.121,49.365 42.267,49.718 42.528,49.979 L49.433,56.881 C49.699,57.147 50.055,57.289 50.416,57.289 C50.596,57.289 50.776,57.255 50.949,57.183 C51.47,56.967 51.807,56.46 51.807,55.897 L51.807,49.858 L64.841,43.338 C65.24,43.138 65.521,42.757 65.593,42.316 C65.663,41.874 65.52,41.426 65.202,41.109 L63.774,39.681 C63.82,39.645 63.865,39.609 63.908,39.572 C63.938,39.546 63.983,39.535 64.012,39.508 C65.763,40.295 67.408,41.237 68.962,42.285 L56.333,54.915 C55.851,55.397 55.789,56.159 56.187,56.713 C56.456,57.087 56.881,57.291 57.318,57.291 C57.527,57.291 57.741,57.244 57.939,57.145 L71.451,50.39 L76.636,50.39 L76.636,62.8 C76.636,63.17 76.782,63.523 77.043,63.784 L83.534,70.276 C83.526,71.748 83.492,73.552 83.423,75.57 C82.201,75.219 80.524,75.213 78.027,75.213 L22.802,75.213 C20.58,75.213 18.964,75.272 17.768,75.531 C17.67,75.385 17.518,75.292 17.39,75.173 C17.332,73.315 17.301,71.647 17.292,70.275 L23.786,63.785 C24.047,63.524 24.194,63.171 24.194,62.801 L24.191,49.482 C25.916,47.248 27.92,45.229 30.18,43.485 L30.18,43.485 Z M15.045,77.703 C15.046,77.701 15.047,77.699 15.049,77.697 C15.046,77.705 15.043,77.713 15.04,77.721 C15.042,77.715 15.043,77.709 15.045,77.703 L15.045,77.703 Z M83.12,92.229 C83.106,92.246 83.093,92.263 83.08,92.281 C83.093,92.264 83.106,92.246 83.12,92.229 L83.12,92.229 Z M82.895,46.214 C83.532,48.762 83.822,52.447 83.911,56.728 C82.719,53.643 81.097,50.757 79.119,48.129 C79.114,48.124 79.112,48.118 79.106,48.112 C78.811,47.721 78.505,47.336 78.194,46.957 C78.211,42.956 78.135,38.764 77.905,34.676 C79.74,36.864 81.465,40.499 82.895,46.214 L82.895,46.214 Z M35.863,15.761 C37.4,17.506 38.804,19.798 39.867,22.369 C39.897,22.694 39.926,23.016 39.96,23.333 C38.437,22.117 36.869,20.957 35.279,19.902 C35.377,18.441 35.567,17.054 35.863,15.761 L35.863,15.761 Z M21.193,34.199 C21.758,33.436 22.507,32.787 23.332,32.204 C23.615,36.326 24.119,40.578 24.688,44.678 C23.633,45.761 22.644,46.899 21.739,48.1 C21.723,48.119 21.711,48.141 21.696,48.16 C19.267,51.399 17.39,55.037 16.167,58.934 C16.488,48.876 17.592,39.051 21.193,34.199 L21.193,34.199 Z M13.981,95.291 L4.353,95.291 L4.353,78.758 L13.981,78.758 L13.981,95.291 L13.981,95.291 Z M14.608,80.033 C14.605,80.066 14.604,80.101 14.601,80.134 C14.604,80.101 14.605,80.064 14.608,80.033 L14.608,80.033 Z M14.536,81.468 C14.533,81.588 14.529,81.706 14.526,81.831 C14.529,81.708 14.533,81.586 14.536,81.468 L14.536,81.468 Z M14.803,86.112 C14.78,86.002 14.765,85.892 14.744,85.781 C14.765,85.892 14.779,86.002 14.803,86.112 L14.803,86.112 Z M77.045,110.138 C74.672,112.511 72.302,115.672 70.01,118.727 C67.904,121.537 65.763,124.381 63.67,126.569 C59.614,125.54 55.391,124.93 51.015,124.93 C46.288,124.93 41.726,125.606 37.375,126.795 C35.213,124.58 32.996,121.629 30.818,118.725 C28.527,115.669 26.159,112.508 23.789,110.138 C21.348,107.7 19.788,100.986 18.807,93.525 C21.688,96.617 25.67,98.71 29.704,98.71 L36.608,98.71 C39.963,98.71 42.166,97.307 43.999,95.759 C44.459,95.372 44.9,94.978 45.324,94.592 C47.034,93.036 48.385,91.806 50.417,91.806 C51.606,91.806 52.557,92.241 53.477,92.885 C54.158,93.361 54.823,93.941 55.551,94.607 C56.311,95.301 57.111,96.027 58.015,96.674 C58.05,96.699 58.081,96.726 58.116,96.75 C58.13,96.758 58.143,96.767 58.157,96.776 C59.309,97.579 60.655,98.228 62.304,98.525 C62.904,98.632 63.531,98.71 64.221,98.71 L71.125,98.71 C75.161,98.71 79.146,96.614 82.027,93.521 C81.046,100.982 79.486,107.697 77.045,110.138 L77.045,110.138 Z M86.322,95.763 L86.322,84.901 L97.344,84.901 L97.344,89.829 C92.894,94.097 88.494,95.379 86.322,95.763 L86.322,95.763 Z" id="Shape"></path>
                    <path d="M58.303,105.207 L56.335,103.239 C53.361,106.211 51.565,108.005 50.417,108.005 C49.268,108.005 47.472,106.211 44.497,103.239 L42.528,105.207 C46.251,108.927 48.335,110.788 50.417,110.788 C52.499,110.788 54.581,108.927 58.303,105.207 L58.303,105.207 Z" id="Shape"></path>
                    <polygon id="Shape" points="36.608 115.938 64.22 115.938 64.22 120.113 36.608 120.113"></polygon>
                </g>
            </g>
        </g>
    </g>
</svg>