<?xml version="1.0" encoding="UTF-8" standalone="no"?>
<svg width="157px" height="122px" viewBox="0 0 157 122" version="1.1" xmlns="http://www.w3.org/2000/svg" xmlns:xlink="http://www.w3.org/1999/xlink">
    <!-- Generator: Sketch 3.8.3 (29802) - http://www.bohemiancoding.com/sketch -->
    <title>mccree</title>
    <desc>Created with Sketch.</desc>
    <defs></defs>
    <g id="Page-1" stroke="none" stroke-width="1" fill="none" fill-rule="evenodd">
        <g id="HeroIcons_with_names" transform="translate(-654.000000, -16.000000)" fill="#FFFFFF">
            <g id="Layer_1">
                <g id="mccree" transform="translate(654.000000, 16.000000)">
                    <path d="M157,37.575 C157,29.271 147.348,29.271 144.176,29.271 C138.443,29.271 130.78,30.339 121.905,31.576 C119.889,31.857 117.758,32.149 115.58,32.442 L115.58,16.864 C115.58,16.16 115.226,15.504 114.636,15.117 C113.754,14.539 92.868,0.97 78.98,0.97 C65.09,0.97 44.203,14.539 43.32,15.117 C42.73,15.503 42.376,16.159 42.376,16.864 L42.377,32.748 C39.649,32.382 36.996,32.013 34.504,31.659 C26.045,30.46 18.738,29.425 13.277,29.425 C10.23,29.425 0.958,29.425 0.958,37.571 C0.958,40.394 2.262,59.891 36.25,69.065 C36.219,69.181 36.17,69.29 36.17,69.41 L36.17,78.992 C36.17,79.555 36.51,80.063 37.029,80.278 C37.549,80.495 38.146,80.376 38.546,79.976 L43.072,75.449 L43.072,85.894 C43.072,86.664 43.694,87.286 44.464,87.286 L47.282,87.286 C47.425,87.286 47.554,87.232 47.687,87.191 C48.39,89.432 49.186,91.551 50.12,93.419 C51.536,96.247 54.806,99.842 58.383,103.267 L57.025,105.982 C56.809,106.413 56.833,106.925 57.087,107.336 C57.34,107.746 57.788,107.997 58.271,107.997 L63.606,107.997 C63.665,108.047 63.725,108.101 63.784,108.152 L63.784,113.507 C63.784,113.875 63.93,114.23 64.192,114.491 L71.093,121.395 C71.358,121.66 71.68,121.758 72.093,121.803 C72.468,121.799 72.825,121.643 73.085,121.371 L78.981,115.178 L84.874,121.371 C85.133,121.643 85.49,121.798 85.865,121.803 L85.883,121.803 C86.251,121.803 86.606,121.657 86.866,121.395 L93.77,114.491 C94.032,114.23 94.178,113.877 94.178,113.507 L94.178,110.948 L98.215,114.983 L101.166,112.031 L97.131,107.997 L99.691,107.997 C100.173,107.997 100.622,107.747 100.875,107.336 C101.129,106.925 101.152,106.413 100.937,105.982 L99.671,103.453 C103.127,100.068 106.322,96.45 107.838,93.419 C108.772,91.553 109.568,89.436 110.27,87.195 C110.398,87.233 110.521,87.286 110.658,87.286 L113.496,87.286 C114.265,87.286 114.888,86.663 114.888,85.894 L114.888,75.448 L119.416,79.976 C119.815,80.376 120.412,80.497 120.933,80.278 C121.454,80.063 121.792,79.555 121.792,78.992 L121.792,69.285 C121.792,69.159 121.741,69.043 121.707,68.924 C156.438,59.292 157,38.707 157,37.575 L157,37.575 Z M84.488,43.67 L84.488,43.899 L79.1,49.287 C79.058,49.287 79.018,49.29 78.978,49.29 C78.937,49.29 78.897,49.287 78.855,49.287 L73.465,43.899 L73.465,43.668 L73.465,38.965 L84.487,38.965 L84.487,43.67 L84.488,43.67 Z M78.979,5.146 C90.068,5.146 107.217,15.4 111.405,18.013 L111.405,36.75 C107.433,37.919 96.984,40.821 87.272,42.091 L87.272,37.575 C87.272,36.805 86.65,36.183 85.88,36.183 L72.073,36.183 C71.304,36.183 70.681,36.805 70.681,37.575 L70.681,42.09 C60.974,40.819 50.524,37.919 46.551,36.75 L46.548,18.013 C50.736,15.4 67.889,5.146 78.979,5.146 L78.979,5.146 Z M45.837,71.195 C46.257,71.27 46.675,71.347 47.103,71.419 C46.675,71.348 46.26,71.27 45.837,71.195 L45.837,71.195 L45.837,71.195 Z M91.393,94.19 L91.393,99.371 L90.429,101.297 L87.356,98.224 L87.356,97.112 L72.074,97.112 L72.074,101.287 L84.516,101.287 L88.461,105.233 L85.521,111.111 L79.987,105.297 C79.46,104.745 78.498,104.745 77.97,105.297 L72.436,111.111 L66.564,99.371 L66.564,94.19 L91.393,94.19 L91.393,94.19 Z M105.345,92.173 C104.069,94.727 101.375,97.831 98.36,100.834 L94.03,92.176 C93.791,91.696 93.299,91.426 92.785,91.425 L92.785,91.407 L65.173,91.407 L65.173,91.424 C64.656,91.424 64.166,91.697 63.928,92.177 L59.685,100.66 C56.556,97.627 53.799,94.55 52.61,92.174 C49.856,86.664 48.234,78.808 47.268,71.45 C56.072,72.937 66.513,73.828 78.98,73.828 C92.145,73.828 103.044,72.798 112.142,71.11 L112.142,71.111 C111.661,71.202 111.189,71.295 110.696,71.382 C109.729,78.756 108.106,86.645 105.345,92.173 L105.345,92.173 Z M78.979,69.653 C35.362,69.653 17.512,58.671 10.202,49.549 L22.481,43.085 L6.385,43.085 C5.186,40.045 5.131,37.898 5.131,37.572 C5.131,36.184 5.131,33.601 13.276,33.601 C18.443,33.601 25.614,34.618 33.916,35.795 C36.585,36.172 39.439,36.568 42.378,36.96 L42.378,44.477 C42.378,45.268 42.825,45.991 43.531,46.345 C44.113,46.636 58.017,53.467 78.979,53.467 C99.94,53.467 113.844,46.636 114.426,46.345 C115.132,45.991 115.579,45.268 115.579,44.477 L115.579,36.654 C117.961,36.336 120.286,36.016 122.48,35.711 C131.201,34.496 138.733,33.447 144.175,33.447 C152.824,33.447 152.824,36.133 152.824,37.576 C152.825,38.885 151.984,69.653 78.979,69.653 L78.979,69.653 Z" id="Shape"></path>
                    <path d="M78.979,82.776 C77.831,82.776 76.036,80.984 73.065,78.012 L73.061,78.008 L71.097,79.98 C74.811,83.694 76.676,85.559 78.979,85.559 C81.283,85.559 83.148,83.693 86.864,79.976 L84.896,78.008 C81.923,80.982 80.129,82.776 78.979,82.776 L78.979,82.776 Z" id="Shape"></path>
                </g>
            </g>
        </g>
    </g>
</svg>