<?xml version="1.0" encoding="UTF-8" standalone="no"?>
<svg width="91px" height="113px" viewBox="0 0 91 113" version="1.1" xmlns="http://www.w3.org/2000/svg" xmlns:xlink="http://www.w3.org/1999/xlink">
    <!-- Generator: Sketch 3.8.3 (29802) - http://www.bohemiancoding.com/sketch -->
    <title>mei</title>
    <desc>Created with Sketch.</desc>
    <defs></defs>
    <g id="Page-1" stroke="none" stroke-width="1" fill="none" fill-rule="evenodd">
        <g id="HeroIcons_with_names" transform="translate(-1.000000, -170.000000)" fill="#FFFFFF">
            <g id="Layer_1">
                <g id="mei" transform="translate(0.000000, 170.000000)">
                    <polygon id="Shape" points="43.01 95.631 56.819 95.631 56.819 98.414 43.01 98.414"></polygon>
                    <path d="M89.723,55.004 C89.68,54.4 89.617,53.808 89.555,53.215 C89.531,52.97 89.512,52.723 89.485,52.481 C89.417,51.916 89.333,51.361 89.248,50.804 C89.207,50.546 89.172,50.287 89.131,50.035 C89.036,49.486 88.93,48.95 88.818,48.415 C88.769,48.17 88.72,47.923 88.666,47.681 C88.546,47.145 88.413,46.623 88.277,46.104 C88.217,45.875 88.157,45.645 88.095,45.419 C87.948,44.902 87.793,44.394 87.627,43.894 C87.559,43.679 87.491,43.467 87.418,43.258 C87.244,42.758 87.062,42.266 86.872,41.782 C86.796,41.592 86.72,41.404 86.641,41.217 C86.44,40.728 86.227,40.252 86.007,39.787 C85.928,39.624 85.85,39.461 85.771,39.303 C85.537,38.827 85.295,38.363 85.04,37.911 C84.966,37.781 84.888,37.653 84.814,37.525 C84.543,37.06 84.265,36.607 83.974,36.171 C83.911,36.079 83.844,35.992 83.781,35.899 C83.466,35.442 83.145,34.997 82.808,34.573 C82.775,34.532 82.74,34.494 82.705,34.453 C80.362,31.56 77.494,29.506 74.162,28.571 L74.154,28.571 C74.14,28.566 74.124,28.56 74.111,28.554 C71.954,24.638 68.844,21.344 65.136,18.88 L75.344,13.971 L76.135,14.762 L76.135,21.09 L78.919,21.09 L78.919,14.186 C78.919,13.816 78.772,13.463 78.511,13.202 L78.003,12.694 L79.422,12.012 C80.68,13.344 82.453,14.186 84.432,14.186 C88.243,14.186 91.333,11.098 91.333,7.287 C91.333,3.471 88.242,0.383 84.432,0.383 C80.618,0.383 77.527,3.471 77.527,7.287 C77.527,7.615 77.579,7.929 77.624,8.244 L74.874,9.565 L71.607,6.298 L69.639,8.266 L72.217,10.845 L60.624,16.419 C57.33,15.027 53.717,14.242 49.916,14.242 C37.842,14.242 27.607,22.002 23.856,32.797 C21.618,33.923 19.3,35.668 17.108,38.112 L0.99,45.862 L2.197,48.371 L13.626,42.876 C11.586,46.25 9.792,50.423 8.495,55.608 C4.755,70.58 8.846,97.028 22.304,103.928 C22.304,103.928 15.4,97.023 15.4,83.22 C15.4,83.22 22.301,104.27 36.108,110.833 C34.064,107.767 32.285,104.776 30.746,101.864 C38.184,108.844 46.107,112.223 49.916,112.223 C54.052,112.223 63.041,108.282 70.991,100.002 C70.663,101.304 70.339,102.591 70.004,103.928 L76.906,97.023 C77.55,96.192 78.167,95.34 78.76,94.485 C78.959,94.196 79.141,93.903 79.334,93.614 C79.717,93.036 80.103,92.457 80.467,91.87 C80.679,91.524 80.878,91.174 81.084,90.826 C81.402,90.288 81.72,89.749 82.019,89.206 C82.228,88.825 82.424,88.439 82.623,88.06 C82.895,87.538 83.169,87.018 83.425,86.494 C83.621,86.092 83.803,85.689 83.988,85.287 C84.227,84.773 84.464,84.257 84.686,83.738 C84.863,83.325 85.031,82.912 85.197,82.496 C85.406,81.982 85.607,81.471 85.801,80.96 C85.959,80.533 86.111,80.106 86.26,79.683 C86.439,79.175 86.611,78.666 86.774,78.161 C86.915,77.726 87.051,77.291 87.179,76.856 C87.331,76.356 87.472,75.853 87.611,75.35 C87.731,74.91 87.848,74.47 87.959,74.029 C88.084,73.534 88.198,73.039 88.31,72.542 C88.411,72.093 88.511,71.647 88.601,71.202 C88.699,70.718 88.786,70.232 88.872,69.745 C88.954,69.294 89.038,68.843 89.109,68.391 C89.182,67.918 89.242,67.451 89.305,66.98 C89.368,66.521 89.432,66.058 89.484,65.596 C89.533,65.15 89.568,64.707 89.609,64.264 C89.65,63.785 89.699,63.31 89.732,62.837 C89.756,62.443 89.767,62.052 89.786,61.66 C89.881,59.57 89.87,57.517 89.751,55.522 C89.736,55.349 89.734,55.172 89.723,55.004 L89.723,55.004 Z M67.169,76.315 C69.077,76.315 70.621,74.771 70.621,72.863 C70.621,72.075 70.311,71.383 69.868,70.802 L76.13,70.802 C76.077,77.066 75.291,81.827 63.72,81.827 C59.466,81.827 58.492,74.046 58.274,70.802 L64.475,70.802 C64.03,71.383 63.721,72.074 63.721,72.863 C63.72,74.771 65.267,76.315 67.169,76.315 L67.169,76.315 Z M56.818,68.019 L43.01,68.019 L31.745,68.019 C43.856,60.811 49.914,48.703 49.914,48.703 C49.914,55.955 43.01,62.512 43.01,62.512 C52.9,57.568 60.95,50.862 65.707,44.599 C68.205,51.866 55.427,62.512 55.427,62.512 C55.427,62.512 65.889,57.512 72.426,51.282 C73.134,52.428 73.78,53.594 74.298,54.803 C76.029,58.845 76.727,63.253 76.723,68.019 L56.818,68.019 L56.818,68.019 Z M36.1,55.716 C36.047,60.715 32.423,65.681 30.453,68.019 L24.89,68.019 C35.234,62.1 36.04,56.533 36.1,55.716 L36.1,55.716 Z M29.958,70.802 C29.514,71.383 29.204,72.074 29.204,72.863 C29.204,74.771 30.751,76.315 32.654,76.315 C34.562,76.315 36.106,74.771 36.106,72.863 C36.106,72.075 35.796,71.383 35.353,70.802 L41.556,70.802 C41.34,74.045 40.372,81.827 36.106,81.827 C24.537,81.827 23.752,77.066 23.698,70.802 L29.958,70.802 L29.958,70.802 Z M49.914,109.439 C45.91,109.439 34.902,104.152 26.667,92.953 C24.876,88.33 23.69,83.938 22.989,79.789 C24.941,82.613 28.72,84.611 36.105,84.611 C42.924,84.611 44.136,74.558 44.351,70.802 L55.477,70.802 C55.692,74.557 56.903,84.611 63.72,84.611 C69.466,84.611 73.035,83.404 75.258,81.54 C75.175,81.98 75.109,82.41 75.02,82.855 C75.009,82.901 75.001,82.948 74.993,82.994 C74.786,84.03 74.566,85.082 74.335,86.144 C74.311,86.261 74.283,86.378 74.256,86.495 C73.74,88.852 73.152,91.291 72.541,93.776 C64.381,104.406 53.819,109.439 49.914,109.439 L49.914,109.439 Z" id="Shape"></path>
                </g>
            </g>
        </g>
    </g>
</svg>