<?xml version="1.0" encoding="UTF-8" standalone="no"?>
<svg width="93px" height="109px" viewBox="0 0 93 109" version="1.1" xmlns="http://www.w3.org/2000/svg" xmlns:xlink="http://www.w3.org/1999/xlink">
    <!-- Generator: Sketch 3.8.3 (29802) - http://www.bohemiancoding.com/sketch -->
    <title>mercy</title>
    <desc>Created with Sketch.</desc>
    <defs></defs>
    <g id="Page-1" stroke="none" stroke-width="1" fill="none" fill-rule="evenodd">
        <g id="HeroIcons_with_names" transform="translate(-109.000000, -173.000000)" fill="#FFFFFF">
            <g id="Layer_1">
                <g id="mercy" transform="translate(109.000000, 173.000000)">
                    <path d="M92.752,37.57 C92.752,17.002 72.923,0.27 48.55,0.27 C24.177,0.27 4.348,17.002 4.348,37.57 C4.348,39.679 4.619,41.758 5.032,43.808 C3.855,49.852 4.391,56.964 7.129,65.182 C14.033,85.889 0.228,106.598 0.228,106.598 C14.741,95.713 19.715,90.55 22.174,85.093 C23.958,89.669 25.823,93.43 25.973,93.728 L26.383,94.29 C27.858,95.728 41.014,108.337 48.55,108.337 C56.086,108.337 69.24,95.728 70.715,94.29 L71.126,93.728 C71.346,93.288 75.314,85.294 77.23,78.264 C79.168,78.147 83.067,77.27 83.067,72.081 L83.067,65.182 C83.067,65.182 83.066,63.438 82.189,61.704 C88.933,55.004 92.752,46.475 92.752,37.57 L92.752,37.57 Z M33.871,66.573 L34.743,66.573 C38.493,66.573 39.693,69.043 40.076,70.694 L34.743,70.694 C33.986,70.694 33.356,70.573 32.792,70.398 C33.217,69.206 33.576,67.93 33.871,66.573 L33.871,66.573 Z M87.185,37.57 C87.185,42.782 85.564,47.857 82.64,52.388 C81.992,47.741 80.351,41.024 76.162,36.836 C76.146,36.819 76.128,36.803 76.113,36.788 C75.664,25.82 66.211,24.197 63.253,28.03 C62.672,27.665 62.088,27.306 61.481,26.982 C65.197,24.338 69.258,20.603 69.258,16.857 C69.258,16.857 63.148,16.876 57.564,19.091 C58.496,14.984 58.485,10.73 59.649,7.187 C75.557,11.114 87.185,23.242 87.185,37.57 L87.185,37.57 Z M48.551,5.837 C51.24,5.837 53.866,6.066 56.403,6.499 C50.848,10.677 47.142,16.135 46.136,21.145 C42.182,13.693 34.745,9.953 34.745,9.953 C34.745,15.64 35.919,20.136 37.296,23.482 C32.52,21.631 26.735,20.862 20.939,23.762 C16.796,25.834 13.291,28.539 10.577,31.854 C13.869,17.078 29.626,5.837 48.551,5.837 L48.551,5.837 Z M67.547,91.545 C62.38,96.527 52.884,104.162 48.55,104.162 C44.216,104.162 34.719,96.527 29.551,91.545 C28.497,89.404 26.705,85.418 25.26,81.395 C27.727,79.388 30.014,76.607 31.736,72.964 C32.613,73.262 33.578,73.478 34.741,73.478 L43.037,73.478 L43.037,72.086 C43.037,69.217 41.303,63.79 34.741,63.79 L34.351,63.79 C34.526,62.485 34.639,61.112 34.685,59.669 L41.645,59.669 L41.645,56.886 L34.786,56.886 C35.673,37.127 55.454,51.373 55.454,51.373 C55.454,51.101 55.475,50.872 55.48,50.61 C64.889,37.034 71.087,51.651 74.074,64.496 L74.074,72.08 C74.074,72.768 73.98,73.56 73.833,74.408 L69.257,78.984 L72.659,78.984 C71.152,83.748 68.813,88.973 67.547,91.545 L67.547,91.545 Z" id="Shape"></path>
                    <path d="M70.65,63.785 L62.357,63.785 C55.796,63.785 54.064,69.212 54.064,72.081 L54.064,73.473 L62.357,73.473 C68.917,73.473 70.65,68.046 70.65,65.177 L70.65,63.785 L70.65,63.785 Z M62.357,70.689 L57.03,70.689 C57.419,69.054 58.622,66.568 62.357,66.568 L67.683,66.568 C67.294,68.203 66.092,70.689 62.357,70.689 L62.357,70.689 Z" id="Shape"></path>
                    <polygon id="Shape" points="41.646 90.706 55.455 90.706 55.455 94.881 41.646 94.881"></polygon>
                    <polygon id="Shape" points="55.455 56.886 69.258 56.886 69.258 59.669 55.455 59.669"></polygon>
                </g>
            </g>
        </g>
    </g>
</svg>