<?xml version="1.0" encoding="UTF-8" standalone="no"?>
<svg width="84px" height="117px" viewBox="0 0 84 117" version="1.1" xmlns="http://www.w3.org/2000/svg" xmlns:xlink="http://www.w3.org/1999/xlink">
    <!-- Generator: Sketch 3.8.3 (29802) - http://www.bohemiancoding.com/sketch -->
    <title>phara</title>
    <desc>Created with Sketch.</desc>
    <defs></defs>
    <g id="Page-1" stroke="none" stroke-width="1" fill="none" fill-rule="evenodd">
        <g id="HeroIcons_with_names" transform="translate(-231.000000, -164.000000)" fill="#FFFFFF">
            <g id="Layer_1">
                <g id="phara" transform="translate(231.000000, 164.000000)">
                    <path d="M77.624,78.087 L77.624,71.184 L77.624,69.792 L83.137,64.281 L83.135,43.572 L76.233,22.862 L76.233,39.227 L43.3,0.808 C42.506,-0.116 40.925,-0.116 40.131,0.808 L7.203,39.226 L7.204,22.861 L0.3,43.571 L0.3,64.28 L5.807,69.789 L5.807,78.086 L5.809,78.086 L5.812,98.795 L5.116,98.795 L5.113,112.601 L9.288,112.601 L9.291,98.795 L8.595,98.795 L8.593,74.988 L12.056,92.301 L12.236,92.825 C12.531,93.414 19.616,107.335 33.877,114.468 C36.367,115.714 39.041,116.335 41.714,116.335 C44.387,116.335 47.062,115.714 49.553,114.468 C63.814,107.335 70.899,93.414 71.194,92.825 L74.84,74.841 L74.84,78.086 L74.84,98.795 L74.144,98.795 L74.141,112.601 L78.316,112.601 L78.318,98.795 L77.622,98.795 L77.622,78.087 L77.624,78.087 Z M8.607,63.289 C8.664,61.514 8.888,59.806 9.225,58.149 C22.015,63.066 31.944,72.974 37.298,79.293 C31.534,74.688 21.483,67.753 8.607,63.289 L8.607,63.289 Z M41.716,51.867 C45.634,51.867 49.468,49.899 52.252,48.004 L41.716,74.34 L31.184,48.004 C33.967,49.9 37.8,51.867 41.716,51.867 L41.716,51.867 Z M74.206,58.15 C74.544,59.805 74.767,61.514 74.824,63.289 C61.952,67.752 51.901,74.686 46.137,79.29 C51.49,72.972 61.421,63.067 74.206,58.15 L74.206,58.15 Z M41.716,5.375 L74.145,43.206 L74.145,48.181 C66.69,30.952 41.716,15.96 41.716,15.96 C41.716,15.96 16.746,30.951 9.291,48.178 L9.292,43.206 L41.716,5.375 L41.716,5.375 Z M68.884,83.463 L61.034,91.316 L61.031,100.115 C57.79,103.832 53.344,107.904 47.686,110.734 C43.893,112.63 39.538,112.632 35.745,110.734 C30.095,107.908 25.646,103.827 22.399,100.101 L22.399,91.316 L14.546,83.464 L11.31,67.285 C15.767,69.07 19.856,71.13 23.46,73.23 L19.687,84.549 L22.327,85.43 L25.902,74.706 C35.087,80.412 40.646,85.888 40.731,85.973 L41.715,86.957 L42.699,85.973 C42.824,85.848 54.487,74.346 72.12,67.285 L68.884,83.463 L68.884,83.463 Z" id="Shape"></path>
                    <polygon id="Shape" points="34.814 96.708 48.62 96.708 48.62 100.883 34.814 100.883"></polygon>
                </g>
            </g>
        </g>
    </g>
</svg>