<?xml version="1.0" encoding="UTF-8" standalone="no"?>
<svg width="117px" height="120px" viewBox="0 0 117 120" version="1.1" xmlns="http://www.w3.org/2000/svg" xmlns:xlink="http://www.w3.org/1999/xlink">
    <!-- Generator: Sketch 3.8.3 (29802) - http://www.bohemiancoding.com/sketch -->
    <title>reaper</title>
    <desc>Created with Sketch.</desc>
    <defs></defs>
    <g id="Page-1" stroke="none" stroke-width="1" fill="none" fill-rule="evenodd">
        <g id="HeroIcons_with_names" transform="translate(-329.000000, -162.000000)" fill="#FFFFFF">
            <g id="Layer_1">
                <path d="M419.767,281.569 L445.122,247.338 L444.529,246.186 C442.175,241.592 439.794,233.53 437.035,224.195 C431.783,206.42 425.831,186.273 416.537,176.982 C409.369,169.811 388.974,162.959 388.109,162.67 L387.448,162.45 L386.788,162.67 C385.923,162.958 365.528,169.811 358.358,176.982 C349.069,186.273 343.116,206.415 337.865,224.187 C335.106,233.527 332.722,241.592 330.365,246.186 L329.772,247.341 L355.128,281.572 L355.019,275.062 C354.698,256.091 349.354,237.449 348.221,233.703 C349.806,228.886 351.037,224.404 352.13,220.43 C352.758,218.144 353.348,216.002 353.948,213.988 L355.106,215.146 C353.897,217.94 352.932,219.873 352.932,219.873 C354.816,221.76 356.697,223.641 358.442,225.383 L358.442,247.485 C358.442,247.855 358.589,248.208 358.85,248.469 L372.406,262.025 L373.64,268.195 L387.449,282.002 L401.255,268.195 L402.489,262.025 L416.453,248.061 L416.453,225.385 C418.197,223.64 420.076,221.759 421.963,219.872 C421.963,219.872 420.997,217.939 419.788,215.145 L420.948,213.984 C421.547,215.998 422.136,218.135 422.764,220.418 C423.857,224.395 425.09,228.88 426.675,233.7 C425.541,237.448 420.195,256.087 419.874,275.057 L419.767,281.569 L419.767,281.569 Z M357.863,208.041 L354.879,211.026 C356.187,207.066 357.646,203.684 359.685,200.857 C359.396,203.036 358.701,205.556 357.863,208.041 L357.863,208.041 Z M361.226,246.909 L361.226,228.167 C364.463,231.404 366.738,233.68 366.738,233.68 L366.738,240.584 L366.738,247.486 L369.5,247.486 L371.424,257.108 L361.226,246.909 L361.226,246.909 Z M366.738,226.777 C355.971,221.395 362,216.01 365.175,213.901 C366.838,215.165 368.863,216.421 371.285,217.516 L377.91,224.141 C377.956,224.924 378.021,225.786 378.098,226.683 C378.1,226.715 378.103,226.746 378.106,226.778 L366.738,226.778 L366.738,226.777 Z M375.032,202.615 C375.032,201.479 375.956,200.554 377.093,200.554 C378.23,200.554 379.154,201.478 379.154,202.615 C379.154,203.752 378.23,204.675 377.093,204.675 C375.956,204.675 375.032,203.751 375.032,202.615 L375.032,202.615 Z M387.449,268.195 C381.116,261.861 374.793,238.115 379.117,234.234 C380.185,239.869 382.086,245.694 385.481,249.089 L387.398,251.006 L389.363,249.141 C392.794,245.89 394.713,239.989 395.784,234.266 C400.1,238.254 393.777,261.865 387.449,268.195 L387.449,268.195 Z M380.55,220.27 C382.662,220.624 384.94,220.857 387.425,220.901 C387.708,220.906 387.988,220.909 388.265,220.909 C390.451,220.909 392.454,220.73 394.343,220.455 C394.313,222.176 394.126,227.827 393.057,233.655 C392.092,238.912 390.412,244.313 387.449,247.121 C384.519,244.191 382.842,238.855 381.871,233.676 C380.732,227.604 380.572,221.749 380.55,220.27 L380.55,220.27 Z M395.742,202.615 C395.742,201.479 396.666,200.554 397.803,200.554 C398.94,200.554 399.864,201.478 399.864,202.615 C399.864,203.752 398.94,204.675 397.803,204.675 C396.666,204.675 395.742,203.751 395.742,202.615 L395.742,202.615 Z M413.669,246.909 L403.473,257.106 L405.397,247.486 L408.159,247.486 L408.159,240.584 L408.159,233.68 L413.669,228.17 L413.669,246.909 L413.669,246.909 Z M408.159,226.777 L396.786,226.777 C396.868,225.856 396.93,224.988 396.979,224.19 C396.979,224.176 396.982,224.163 396.982,224.149 L403.073,218.058 C405.819,216.881 408.099,215.473 409.915,214.035 C413.128,216.225 418.717,221.499 408.159,226.777 L408.159,226.777 Z M417.031,208.041 C416.191,205.557 415.498,203.031 415.21,200.852 C417.249,203.682 418.712,207.066 420.022,211.032 L417.031,208.041 L417.031,208.041 Z M430.856,234.307 L431.06,233.66 L430.848,233.016 C429.195,228.063 427.917,223.415 426.789,219.313 C423.761,208.299 421.412,199.78 414.53,193.947 C412.969,192.623 411.178,191.438 409.091,190.394 C394.766,183.229 380.139,183.229 365.802,190.394 C363.715,191.441 361.923,192.626 360.36,193.95 C353.478,199.789 351.131,208.31 348.104,219.325 C346.976,223.424 345.698,228.07 344.048,233.019 L343.836,233.664 L344.04,234.311 C344.097,234.49 349.14,250.62 350.515,268.329 L334.651,246.915 C336.983,241.897 339.261,234.191 341.868,225.373 C346.725,208.933 352.771,188.476 361.309,179.935 C367.118,174.126 383.903,168.091 387.448,166.86 C390.99,168.089 407.773,174.12 413.584,179.935 C422.125,188.476 428.173,208.938 433.03,225.381 C435.634,234.194 437.909,241.897 440.242,246.912 L424.378,268.327 C425.755,250.617 430.8,234.486 430.856,234.307 L430.856,234.307 Z" id="reaper"></path>
            </g>
        </g>
    </g>
</svg>