<?xml version="1.0" encoding="UTF-8" standalone="no"?>
<svg width="65px" height="132px" viewBox="0 0 65 132" version="1.1" xmlns="http://www.w3.org/2000/svg" xmlns:xlink="http://www.w3.org/1999/xlink">
    <!-- Generator: Sketch 3.8.3 (29802) - http://www.bohemiancoding.com/sketch -->
    <title>reinhard</title>
    <desc>Created with Sketch.</desc>
    <defs></defs>
    <g id="Page-1" stroke="none" stroke-width="1" fill="none" fill-rule="evenodd">
        <g id="HeroIcons_with_names" transform="translate(-460.000000, -156.000000)" fill="#FFFFFF">
            <g id="Layer_1">
                <path d="M521.547,217.184 L521.544,210.592 C521.544,196.721 514.855,176.489 514.572,175.635 L511.859,176.075 L511.862,200.833 C509.573,199.284 505.588,197.199 499.961,196.117 C498.107,178.951 493.943,162.15 493.892,161.935 L492.541,156.534 L491.189,161.935 C491.137,162.15 486.973,178.954 485.12,196.12 C479.496,197.199 475.514,199.284 473.224,200.833 L473.224,176.075 L470.511,175.635 C470.229,176.489 463.538,196.715 463.536,210.586 L463.536,210.586 L463.514,217.235 C462.462,219.48 457.241,231.647 463.544,238.709 C463.614,238.888 463.715,239.054 463.857,239.193 L470.441,245.69 L470.441,272.721 C470.441,272.938 470.493,273.15 470.587,273.343 L477.491,287.147 C477.692,287.545 478.073,287.827 478.513,287.897 C478.586,287.911 478.662,287.916 478.736,287.916 C479.103,287.916 479.457,287.772 479.72,287.509 L486.211,281.017 L498.867,281.017 L505.36,287.511 C505.624,287.775 505.977,287.919 506.344,287.919 C506.417,287.919 506.493,287.913 506.567,287.899 C507.007,287.829 507.388,287.549 507.589,287.149 L514.493,273.343 C514.588,273.15 514.639,272.938 514.639,272.721 L514.639,245.685 L521.141,239.188 C521.155,239.174 521.161,239.155 521.174,239.139 C528.128,232.109 522.572,219.358 521.547,217.184 L521.547,217.184 Z M487.08,207.577 C487.091,207.207 487.109,206.835 487.126,206.465 C487.15,205.837 487.175,205.209 487.213,204.562 C487.232,204.211 487.256,203.858 487.278,203.507 C487.321,202.839 487.365,202.164 487.419,201.471 C487.449,201.058 487.484,200.644 487.523,200.231 C487.572,199.625 487.629,199.011 487.689,198.388 C488.486,190.146 489.879,181.839 491.149,175.296 L491.149,218.503 L487.037,210.273 C487.037,209.89 487.048,209.498 487.054,209.109 C487.061,208.602 487.063,208.102 487.08,207.577 L487.08,207.577 Z M497.551,200.116 C497.591,200.581 497.632,201.046 497.667,201.511 C497.716,202.166 497.76,202.807 497.801,203.444 C497.825,203.816 497.85,204.192 497.871,204.561 C497.906,205.216 497.934,205.852 497.958,206.485 C497.972,206.841 497.99,207.203 498.002,207.559 C498.018,208.108 498.023,208.63 498.031,209.16 C498.037,209.533 498.045,209.908 498.045,210.275 L493.933,218.505 L493.933,175.293 C495.207,181.86 496.61,190.211 497.404,198.488 C497.458,199.037 497.507,199.578 497.551,200.116 L497.551,200.116 Z M470.441,185.766 L470.441,206.177 L470.441,210.592 C470.441,211.402 471.049,218.703 492.1,225.722 L492.98,225.722 C514.034,218.703 514.642,211.402 514.642,210.592 L514.642,206.183 L514.642,185.772 C516.547,192.942 518.76,202.918 518.76,210.592 C518.76,211.03 518.728,211.465 518.659,211.897 C518.656,211.921 518.645,211.943 518.642,211.968 C518.575,212.376 518.485,212.783 518.357,213.186 C518.343,213.227 518.322,213.268 518.308,213.308 C518.183,213.689 518.038,214.067 517.86,214.442 C517.737,214.694 517.586,214.945 517.438,215.197 C517.351,215.349 517.278,215.504 517.18,215.659 C516.128,217.293 514.546,218.891 512.417,220.473 C508.065,223.71 501.378,226.858 492.539,229.832 C483.699,226.855 477.012,223.708 472.663,220.47 C470.534,218.888 468.952,217.29 467.9,215.656 C467.796,215.493 467.718,215.33 467.623,215.167 C467.484,214.925 467.335,214.683 467.218,214.441 C467.03,214.046 466.878,213.652 466.751,213.255 C466.742,213.231 466.729,213.209 466.721,213.185 C466.454,212.331 466.319,211.467 466.319,210.592 C466.32,202.916 468.533,192.939 470.441,185.766 L470.441,185.766 Z M484.247,279.045 L479.118,284.175 L473.224,272.391 L473.224,245.108 C473.224,244.736 473.075,244.379 472.811,244.119 L466.32,237.715 L466.32,218.274 C467.383,219.658 468.753,221.001 470.441,222.314 L470.441,231.3 L470.441,232.159 L471.208,232.542 C471.208,232.542 471.208,232.545 471.211,232.545 L484.247,239.063 L484.247,245.685 L484.247,279.045 L484.247,279.045 Z M487.03,248.435 C489.284,250.591 490.79,251.678 492.543,251.678 C494.294,251.678 495.8,250.591 498.053,248.435 L498.053,278.232 L487.033,278.232 L487.03,248.435 L487.03,248.435 Z M512.267,244.124 C512.006,244.385 511.86,244.738 511.86,245.108 L511.86,272.391 L505.966,284.178 L500.837,279.049 L500.837,245.685 L500.837,245.108 L500.837,239.063 L513.873,232.545 L513.876,232.542 L514.643,232.159 L514.643,231.3 L514.643,222.314 C516.331,221.003 517.702,219.658 518.764,218.274 L518.769,237.628 L512.267,244.124 L512.267,244.124 Z" id="reinhard"></path>
            </g>
        </g>
    </g>
</svg>