<?xml version="1.0" encoding="UTF-8" standalone="no"?>
<svg width="105px" height="124px" viewBox="0 0 105 124" version="1.1" xmlns="http://www.w3.org/2000/svg" xmlns:xlink="http://www.w3.org/1999/xlink">
    <!-- Generator: Sketch 3.8.3 (29802) - http://www.bohemiancoding.com/sketch -->
    <title>roadhoag</title>
    <desc>Created with Sketch.</desc>
    <defs></defs>
    <g id="Page-1" stroke="none" stroke-width="1" fill="none" fill-rule="evenodd">
        <g id="HeroIcons_with_names" transform="translate(-556.000000, -160.000000)" fill="#FFFFFF">
            <g id="Layer_1">
                <g id="roadhoag" transform="translate(556.000000, 160.000000)">
                    <path d="M96.936,93.756 C97.014,93.508 97.061,93.253 97.047,92.989 C96.049,75.28 83.238,43.916 82.694,42.59 C82.496,42.108 82.129,41.715 81.661,41.483 L78.649,39.986 C76.213,33.893 71.737,28.84 66.058,25.677 C66.134,25.65 66.215,25.625 66.288,25.595 C69.765,24.116 72.473,21.178 73.601,17.532 C72.59,15.284 70.342,13.71 67.716,13.71 C65.101,13.71 62.866,15.273 61.847,17.504 C61.478,16.303 61.26,15.033 61.26,13.71 C61.26,8.934 63.859,4.772 67.716,2.541 C65.813,1.437 63.616,0.799 61.26,0.799 C56.329,0.799 52.094,3.596 49.919,7.657 C49.481,6.833 48.974,6.034 48.34,5.298 C45.234,1.669 40.55,0.201 36.165,1.017 C34.691,5.222 35.429,10.072 38.538,13.701 C40.759,16.294 43.787,17.764 46.932,18.104 C44.614,19.33 42.849,21.456 42.12,24.021 C34.763,26.856 28.893,32.667 25.966,39.983 L22.948,41.482 C22.472,41.717 22.103,42.119 21.907,42.61 C21.38,43.935 8.947,75.269 7.569,92.943 C7.547,93.218 7.593,93.487 7.672,93.748 C6.814,94.33 5.998,94.996 5.247,95.748 C2.157,98.835 0.455,102.941 0.455,107.306 C0.455,111.674 2.157,115.777 5.245,118.861 C8.333,121.953 12.437,123.654 16.806,123.654 C21.171,123.654 25.276,121.953 28.361,118.865 C28.446,118.78 28.519,118.687 28.6,118.601 C35.353,120.789 43.741,121.9 52.178,121.9 C60.646,121.9 69.118,120.783 75.991,118.579 C78.97,121.697 83.159,123.654 87.802,123.654 C96.816,123.654 104.15,116.32 104.15,107.306 C104.149,101.672 101.284,96.697 96.936,93.756 L96.936,93.756 Z M78.367,114.717 C78.261,114.578 78.136,114.453 78.035,114.312 C77.883,114.102 77.744,113.883 77.605,113.665 C77.341,113.244 77.105,112.81 76.893,112.358 C76.795,112.145 76.697,111.934 76.61,111.719 C76.412,111.215 76.259,110.697 76.13,110.164 C76.081,109.965 76.016,109.771 75.978,109.57 C75.839,108.837 75.749,108.082 75.749,107.306 C75.749,104.501 76.752,101.949 78.369,99.899 L85.776,107.306 L78.367,114.717 L78.367,114.717 Z M80.392,97.877 C82.442,96.262 84.995,95.257 87.802,95.257 C88.663,95.257 89.506,95.358 90.327,95.534 C90.629,95.597 90.903,95.717 91.194,95.804 C91.711,95.956 92.224,96.108 92.718,96.331 C93.62,96.736 94.442,97.268 95.211,97.875 L87.801,105.284 L80.392,97.877 L80.392,97.877 Z M50.871,32.404 L50.871,34.161 L47.335,34.161 L50.871,32.404 L50.871,32.404 Z M53.736,32.405 L57.27,34.161 L53.736,34.161 L53.736,32.405 L53.736,32.405 Z M12.006,91.639 C13.778,75.851 23.74,49.734 25.6,44.961 L45.204,35.22 L45.204,38.456 L50.871,38.456 L50.871,41.259 L45.204,41.259 L45.204,45.553 L50.871,45.553 L50.871,48.364 L45.204,48.364 L45.204,52.659 L50.871,52.659 L50.871,58.424 L53.736,58.424 L53.736,52.659 L59.401,52.659 L59.401,48.364 L53.736,48.364 L53.736,45.553 L59.401,45.553 L59.401,41.259 L53.736,41.259 L53.736,38.456 L59.401,38.456 L59.401,35.22 L79.021,44.966 C80.918,49.707 91.191,75.927 92.642,91.69 C92.599,91.676 92.552,91.673 92.512,91.66 C91.878,91.47 91.229,91.326 90.566,91.214 C90.368,91.178 90.169,91.149 89.97,91.121 C89.258,91.026 88.537,90.961 87.801,90.961 C81.467,90.961 75.974,94.59 73.261,99.868 L72.081,98.688 L70.442,100.328 C68.84,98.942 67.299,97.798 65.826,96.821 L68.02,94.628 L64.986,91.589 L61.996,94.579 C58.789,92.954 56.157,92.225 54.45,91.915 L54.45,86.005 L50.155,86.005 L50.155,91.915 C48.451,92.225 45.82,92.954 42.612,94.576 L39.62,91.583 L36.581,94.622 L38.78,96.821 C37.306,97.8 35.765,98.942 34.164,100.328 L32.522,98.686 L31.35,99.858 C30.58,98.362 29.586,96.973 28.363,95.75 C25.275,92.659 21.171,90.958 16.805,90.958 C16.775,90.958 16.745,90.961 16.718,90.963 C16.707,90.963 16.696,90.961 16.685,90.961 C16.639,90.961 16.596,90.969 16.549,90.972 C15.948,90.98 15.359,91.026 14.772,91.097 C14.451,91.135 14.133,91.184 13.818,91.239 C13.557,91.288 13.298,91.35 13.041,91.41 C12.696,91.489 12.346,91.538 12.006,91.639 L12.006,91.639 Z M12.071,96.23 C12.264,96.148 12.466,96.094 12.661,96.023 C13.207,95.824 13.757,95.637 14.327,95.517 C14.877,95.408 15.439,95.365 16.005,95.332 C16.249,95.315 16.485,95.261 16.734,95.261 C19.552,95.272 22.113,96.291 24.163,97.928 L16.808,105.283 L9.395,97.874 C10.226,97.217 11.109,96.643 12.071,96.23 L12.071,96.23 Z M26.174,99.962 C27.758,102.004 28.739,104.531 28.739,107.307 C28.739,110.009 27.861,112.556 26.206,114.684 L18.829,107.307 L26.174,99.962 L26.174,99.962 Z M4.751,107.307 C4.751,104.575 5.702,102.012 7.371,99.897 L14.781,107.307 L7.371,114.717 C5.705,112.604 4.751,110.041 4.751,107.307 L4.751,107.307 Z M9.394,116.738 L16.807,109.329 L24.217,116.738 C22.105,118.405 19.541,119.359 16.807,119.359 C14.073,119.359 11.509,118.408 9.394,116.738 L9.394,116.738 Z M73.33,114.92 C61.035,118.463 43.396,118.463 31.262,114.942 C32.496,112.618 33.152,110.013 33.152,107.306 C33.152,106.648 33.1,105.998 33.024,105.357 C33.041,105.341 33.054,105.325 33.07,105.311 L36.585,108.826 L39.624,105.787 L36.208,102.371 C37.836,100.981 39.394,99.846 40.864,98.904 L43.685,101.726 L46.724,98.687 L44.767,96.73 C47.006,95.678 48.847,95.137 50.157,94.854 L50.157,99.845 L54.452,99.845 L54.452,94.854 C55.765,95.139 57.605,95.68 59.846,96.73 L57.886,98.689 L60.919,101.728 L63.746,98.904 C65.217,99.842 66.777,100.978 68.405,102.367 L64.983,105.79 L68.022,108.829 L71.544,105.307 C71.558,105.321 71.568,105.336 71.582,105.35 C71.506,105.992 71.454,106.644 71.454,107.307 C71.454,107.926 71.495,108.536 71.562,109.139 C71.589,109.375 71.636,109.61 71.671,109.843 C71.725,110.197 71.785,110.549 71.863,110.895 C71.926,111.18 72.002,111.461 72.081,111.741 C72.163,112.029 72.252,112.315 72.348,112.596 C72.449,112.885 72.549,113.173 72.663,113.458 C72.782,113.744 72.916,114.023 73.049,114.301 C73.147,114.508 73.224,114.719 73.33,114.92 L73.33,114.92 Z M80.389,116.738 L87.802,109.329 L95.212,116.738 C93.162,118.356 90.609,119.359 87.802,119.359 C84.995,119.359 82.441,118.354 80.389,116.738 L80.389,116.738 Z M97.234,114.717 L89.824,107.307 L97.234,99.897 C98.848,101.947 99.854,104.499 99.854,107.307 C99.854,110.115 98.849,112.667 97.234,114.717 L97.234,114.717 Z" id="Shape"></path>
                    <path d="M67.567,67.185 C70.353,69.974 73.914,71.638 77.091,71.638 C79.127,71.638 80.875,70.967 82.142,69.697 C83.832,68.009 84.45,65.506 83.878,62.649 C83.349,60.004 81.84,57.331 79.63,55.125 C76.847,52.337 73.288,50.674 70.11,50.674 C68.074,50.674 66.326,51.344 65.059,52.612 C63.366,54.301 62.748,56.805 63.32,59.662 C63.852,62.306 65.357,64.978 67.567,67.185 L67.567,67.185 Z M67.083,54.637 C67.994,53.727 69.233,53.536 70.111,53.536 C72.544,53.536 75.346,54.887 77.608,57.148 C79.421,58.96 80.652,61.113 81.071,63.211 C81.449,65.097 81.109,66.682 80.117,67.674 C79.209,68.585 77.97,68.775 77.092,68.775 C74.656,68.775 71.854,67.424 69.59,65.163 C67.777,63.35 66.548,61.197 66.129,59.099 C65.751,57.213 66.091,55.628 67.083,54.637 L67.083,54.637 Z" id="Shape"></path>
                    <path d="M27.517,71.643 L27.52,71.643 C30.697,71.643 34.255,69.979 37.036,67.191 C41.826,62.401 42.927,55.999 39.546,52.614 C38.279,51.347 36.534,50.676 34.495,50.676 C31.317,50.676 27.759,52.34 24.971,55.127 C20.187,59.919 19.083,66.321 22.461,69.705 C23.729,70.975 25.48,71.643 27.517,71.643 L27.517,71.643 Z M26.994,57.151 C29.256,54.889 32.061,53.54 34.494,53.54 C35.375,53.54 36.611,53.73 37.519,54.638 C39.691,56.813 38.543,61.635 35.01,65.169 C32.754,67.431 29.951,68.781 27.519,68.781 C27.519,68.781 27.519,68.781 27.516,68.781 C26.638,68.781 25.396,68.591 24.485,67.68 C22.313,65.508 23.466,60.686 26.994,57.151 L26.994,57.151 Z" id="Shape"></path>
                    <path d="M32.284,93.748 C45.443,67.433 52.274,66.155 52.209,66.136 C52.328,66.155 59.162,67.43 72.321,93.748 L74.882,92.47 C60.989,64.684 53.636,63.276 52.302,63.276 C50.97,63.276 43.616,64.684 29.724,92.47 L32.284,93.748 L32.284,93.748 Z" id="Shape"></path>
                    <path d="M48.753,82.458 C48.753,84.418 47.164,86.007 45.204,86.007 C43.244,86.007 41.655,84.418 41.655,82.458 C41.655,80.498 43.244,78.909 45.204,78.909 C47.164,78.909 48.753,80.498 48.753,82.458 L48.753,82.458 Z" id="Shape"></path>
                    <path d="M59.401,78.909 C57.444,78.909 55.854,80.496 55.854,82.459 C55.854,84.424 57.444,86.012 59.401,86.012 C61.364,86.012 62.951,84.425 62.951,82.459 C62.951,80.497 61.364,78.909 59.401,78.909 L59.401,78.909 Z" id="Shape"></path>
                </g>
            </g>
        </g>
    </g>
</svg>