<?xml version="1.0" encoding="UTF-8" standalone="no"?>
<svg width="76px" height="107px" viewBox="0 0 76 107" version="1.1" xmlns="http://www.w3.org/2000/svg" xmlns:xlink="http://www.w3.org/1999/xlink">
    <!-- Generator: Sketch 3.8.3 (29802) - http://www.bohemiancoding.com/sketch -->
    <title>soldier</title>
    <desc>Created with Sketch.</desc>
    <defs></defs>
    <g id="Page-1" stroke="none" stroke-width="1" fill="none" fill-rule="evenodd">
        <g id="HeroIcons_with_names" transform="translate(-695.000000, -173.000000)" fill="#FFFFFF">
            <g id="Layer_1">
                <path d="M768.712,222.14 C768.873,218.642 768.884,216.266 768.884,215.948 L768.886,209.046 C768.886,208.772 768.805,208.503 768.653,208.274 L767.65,206.771 C765.585,198.975 760.971,192.227 754.741,187.457 C754.714,187.426 754.703,187.385 754.674,187.355 L740.867,173.546 C740.606,173.285 740.253,173.138 739.884,173.138 C739.514,173.138 739.16,173.285 738.9,173.546 L732.705,179.741 L719.797,173.285 C719.364,173.068 718.854,173.092 718.443,173.346 C718.033,173.599 717.783,174.047 717.783,174.53 L717.783,183.465 C717.44,183.626 717.098,183.786 716.761,183.957 L713.255,180.45 C712.858,180.054 712.254,179.934 711.738,180.149 C711.218,180.363 710.879,180.872 710.879,181.435 L710.879,187.711 C708.527,189.557 706.418,191.687 704.589,194.053 L704.399,194.243 C704.342,194.299 704.291,194.359 704.242,194.424 C704.179,194.511 704.141,194.609 704.1,194.706 C702.496,196.88 701.113,199.224 700.025,201.732 L699.452,201.159 C698.971,200.678 698.21,200.615 697.655,201.013 C697.1,201.412 696.919,202.155 697.223,202.765 L698.619,205.562 C697.625,208.853 697.075,212.336 697.075,215.949 L697.073,222.34 C695.061,224.673 694.683,227.733 696.056,231.044 C696.325,231.692 696.678,232.345 697.075,232.996 L697.075,236.66 L697.222,237.283 L699.236,241.31 C700.269,247.316 701.799,253.294 704.078,257.889 C704.08,257.899 704.086,257.907 704.092,257.914 C704.103,257.939 704.113,257.966 704.124,257.99 C704.181,258.104 704.263,258.205 704.347,258.301 C704.364,258.317 704.368,258.337 704.382,258.352 L704.42,258.389 C706.639,260.618 708.933,263.676 711.153,266.637 C714.524,271.131 717.769,275.405 721.17,277.705 C721.205,277.736 721.228,277.779 721.269,277.805 C721.426,277.91 721.582,277.987 721.736,278.081 C721.962,278.217 722.185,278.361 722.411,278.478 C722.927,278.748 723.435,278.955 723.935,279.113 C724.077,279.156 724.218,279.189 724.362,279.224 C724.938,279.37 725.511,279.47 726.08,279.47 L739.887,279.47 C740.454,279.47 741.029,279.37 741.608,279.224 C741.749,279.189 741.887,279.158 742.029,279.113 C742.529,278.957 743.035,278.75 743.551,278.479 C743.784,278.358 744.016,278.208 744.249,278.067 C744.398,277.976 744.543,277.904 744.695,277.803 C744.733,277.779 744.755,277.737 744.787,277.708 C748.187,275.408 751.436,271.135 754.807,266.642 C757.038,263.663 759.349,260.583 761.581,258.351 C761.686,258.246 761.773,258.122 761.842,257.99 C764.155,253.368 765.699,247.316 766.74,241.246 L768.743,237.283 L768.889,236.66 L768.889,232.993 C768.887,232.997 768.884,233.001 768.881,233.006 C769.277,232.351 769.637,231.696 769.905,231.044 C771.311,227.638 770.876,224.497 768.712,222.14 L768.712,222.14 Z M759.451,249.635 L752.704,256.382 C752.599,256.488 752.512,256.611 752.443,256.744 L746.403,268.824 L740.866,263.287 L739.883,262.879 L726.076,262.879 L725.093,263.287 L719.553,268.824 L717.541,264.799 L713.516,256.744 L713.505,256.732 C713.44,256.605 713.356,256.485 713.252,256.381 L706.877,250.009 L706.514,249.639 L701.928,240.467 C701.797,239.689 701.672,238.909 701.558,238.133 C701.555,238.132 701.555,238.131 701.553,238.128 C706.078,242.007 712.534,244.954 719.172,244.954 C723.2,244.954 725.253,242.904 727.061,241.094 C728.695,239.46 730.105,238.05 732.979,238.05 C735.854,238.05 737.265,239.461 738.902,241.094 C740.71,242.904 742.758,244.954 746.785,244.954 C753.423,244.954 759.876,242.009 764.402,238.131 C764.288,238.911 764.163,239.694 764.032,240.477 L759.451,249.635 L759.451,249.635 Z M767.875,227.667 L698.081,227.667 C698.002,226.663 698.195,225.75 698.66,224.938 L719.172,224.938 L719.172,224.242 L746.784,224.242 L746.784,224.938 L767.296,224.938 C767.758,225.75 767.951,226.662 767.875,227.667 L767.875,227.667 Z M746.784,220.762 L746.784,221.458 L735.582,221.458 L747.942,202.914 L745.626,201.37 L732.236,221.458 L719.172,221.458 L719.172,220.762 L702.52,220.762 L706.35,216.934 C706.775,216.512 706.88,215.865 706.612,215.328 L703.546,209.192 L704.383,210.03 C704.782,210.428 705.384,210.55 705.9,210.332 C706.42,210.117 706.759,209.609 706.759,209.046 L706.759,198.6 L711.284,203.126 C711.684,203.527 712.285,203.648 712.802,203.428 C713.321,203.213 713.66,202.705 713.66,202.142 L713.66,195.817 L719.173,190.307 L725.094,196.225 C725.36,196.49 725.608,196.583 726.097,196.633 C726.472,196.627 726.827,196.472 727.086,196.2 L731.59,191.461 L731.59,201.784 C731.59,202.427 732.03,202.986 732.655,203.137 C732.764,203.164 732.873,203.176 732.981,203.176 C733.495,203.176 733.976,202.892 734.218,202.421 L740.249,190.675 L745.8,196.226 C746.344,196.769 747.225,196.769 747.768,196.226 L752.297,191.699 L752.297,202.144 C752.297,202.913 752.919,203.536 753.689,203.536 L759.202,203.536 L759.202,209.049 C759.202,209.419 759.348,209.772 759.609,210.033 L766.095,216.522 C766.084,217.28 766.054,218.772 765.973,220.765 L746.784,220.765 L746.784,220.762 Z M746.784,242.171 C743.914,242.171 742.503,240.76 740.869,239.127 C739.058,237.319 737.007,235.267 732.975,235.267 C728.949,235.267 726.9,237.317 725.092,239.127 C723.458,240.761 722.047,242.171 719.171,242.171 C711.017,242.171 702.982,237.047 699.646,231.842 L766.309,231.842 C762.977,237.044 754.938,242.171 746.784,242.171 L746.784,242.171 Z M744.131,274.754 C741.244,271.588 737.257,269.783 732.979,269.783 C728.7,269.783 724.712,271.586 721.829,274.754 C721.038,274.115 720.235,273.351 719.429,272.484 C719.621,272.447 719.818,272.425 719.986,272.304 C720.044,272.261 720.082,272.202 720.131,272.154 L720.158,272.158 L726.654,265.662 L739.308,265.662 L745.801,272.158 L745.828,272.154 C745.877,272.203 745.915,272.261 745.973,272.304 C746.141,272.425 746.339,272.447 746.53,272.484 C745.721,273.351 744.922,274.115 744.131,274.754 L744.131,274.754 Z" id="soldier"></path>
            </g>
        </g>
    </g>
</svg>