<?xml version="1.0" encoding="UTF-8" standalone="no"?>
<svg width="86px" height="114px" viewBox="0 0 86 114" version="1.1" xmlns="http://www.w3.org/2000/svg" xmlns:xlink="http://www.w3.org/1999/xlink">
    <!-- Generator: Sketch 3.8.3 (29802) - http://www.bohemiancoding.com/sketch -->
    <title>symmetra</title>
    <desc>Created with Sketch.</desc>
    <defs></defs>
    <g id="Page-1" stroke="none" stroke-width="1" fill="none" fill-rule="evenodd">
        <g id="HeroIcons_with_names" transform="translate(-10.000000, -312.000000)" fill="#FFFFFF">
            <g id="Layer_1">
                <g id="symmetra" transform="translate(10.000000, 312.000000)">
                    <polygon id="Shape" points="36.163 83.354 49.969 83.354 49.969 87.53 36.163 87.53"></polygon>
                    <path d="M76.14,71.418 C78.312,67.736 80.212,62.947 79.834,57.811 C82.471,46.272 85.874,26.694 85.874,2.604 C85.874,1.834 85.251,1.211 84.482,1.211 C83.713,1.211 83.09,1.836 83.09,2.604 C83.09,2.637 83.082,5.922 82.269,9.17 C81.301,13.053 79.722,15.02 77.58,15.02 C76.81,15.02 76.188,15.643 76.188,16.413 C76.188,18.14 76.153,19.827 76.128,21.526 C70.259,9.13 57.663,0.516 43.063,0.516 C28.463,0.516 15.869,9.129 10,21.525 C9.976,19.826 9.94,18.138 9.94,16.412 C9.94,15.642 9.317,15.019 8.548,15.019 C3.198,15.019 3.038,2.726 3.038,2.603 L3.038,2.601 C3.038,1.833 2.416,1.21 1.646,1.21 C0.89,1.21 0.276,1.812 0.254,2.562 L0.254,2.572 L0.254,2.576 L0.254,2.582 L0.254,2.586 L0.254,2.59 L0.254,2.59 L0.254,2.594 L0.254,2.594 L0.254,2.6 L0.254,2.6 L0.254,2.604 C0.254,26.678 3.657,46.252 6.291,57.799 C5.911,62.944 7.816,67.74 9.993,71.426 C11.961,77.504 13.206,79.635 14.062,80.389 L14.062,85.442 L13.366,85.442 L13.366,113.053 L17.541,113.053 L17.541,85.442 L16.845,85.442 L16.845,81.999 C19.762,85.122 21.98,87.87 23.806,90.155 C29.207,96.917 32.183,100.637 42.687,100.639 C53.435,100.639 56.681,96.733 62.577,89.645 C64.376,87.483 66.545,84.891 69.285,81.979 L69.285,85.442 L68.589,85.442 L68.589,113.053 L72.764,113.053 L72.764,85.442 L72.068,85.442 L72.068,80.385 C72.927,79.627 74.172,77.49 76.14,71.418 L76.14,71.418 Z M15.453,70.244 C14.534,70.244 9.943,68.646 9.943,37.119 C9.943,34.406 10.758,34.406 11.15,34.406 C13.325,34.406 17.837,37.459 22.2,40.41 C28.955,44.982 36.612,50.162 43.063,50.162 C49.513,50.162 57.17,44.982 63.925,40.414 C68.291,37.459 72.805,34.406 74.983,34.406 C75.374,34.406 76.19,34.406 76.19,37.119 C76.19,68.646 71.599,70.244 70.678,70.244 C67.968,70.244 64.817,69.021 61.169,67.601 C56.032,65.603 50.207,63.339 43.065,63.339 C35.924,63.339 30.102,65.603 24.961,67.601 C21.313,69.018 18.166,70.244 15.453,70.244 L15.453,70.244 Z M48.284,30.297 L43.068,35.516 L37.849,30.297 L43.065,19.59 L48.284,30.297 L48.284,30.297 Z M40.819,17.844 L34.477,30.862 L43.067,39.452 L51.654,30.862 L45.309,17.844 C60.284,18.254 62.472,22.889 66.947,32.532 C67.24,33.163 67.551,33.829 67.865,34.495 C67.868,34.493 67.868,34.493 67.87,34.491 C66.193,35.52 64.355,36.761 62.363,38.11 C55.94,42.454 48.657,47.378 43.061,47.378 C37.461,47.378 30.182,42.454 23.759,38.107 C21.769,36.761 19.937,35.523 18.262,34.496 C18.577,33.826 18.89,33.16 19.183,32.527 C23.659,22.885 25.847,18.254 40.819,17.844 L40.819,17.844 Z M60.439,87.863 C54.733,94.724 52.129,97.855 42.689,97.855 C33.523,97.853 31.161,94.896 25.98,88.417 C23.715,85.583 20.899,82.073 16.847,77.974 L16.847,72.896 C19.663,72.595 22.615,71.5 25.969,70.195 C30.881,68.287 36.446,66.123 43.064,66.123 C49.683,66.123 55.25,68.287 60.159,70.195 C63.516,71.5 66.471,72.597 69.287,72.898 L69.287,77.966 C65.482,81.814 62.688,85.162 60.439,87.863 L60.439,87.863 Z" id="Shape"></path>
                </g>
            </g>
        </g>
    </g>
</svg>