<?xml version="1.0" encoding="UTF-8" standalone="no"?>
<svg width="91px" height="155px" viewBox="0 0 91 155" version="1.1" xmlns="http://www.w3.org/2000/svg" xmlns:xlink="http://www.w3.org/1999/xlink">
    <!-- Generator: Sketch 3.8.3 (29802) - http://www.bohemiancoding.com/sketch -->
    <title>torbjoern</title>
    <desc>Created with Sketch.</desc>
    <defs></defs>
    <g id="Page-1" stroke="none" stroke-width="1" fill="none" fill-rule="evenodd">
        <g id="HeroIcons_with_names" transform="translate(-115.000000, -306.000000)" fill="#FFFFFF">
            <g id="Layer_1">
                <g id="torbjoern" transform="translate(115.000000, 306.000000)">
                    <polygon id="Shape" points="38.696 62.959 52.499 62.959 52.499 65.744 38.696 65.744"></polygon>
                    <path d="M80.122,126.461 C92.319,108.156 93.711,84.484 84.341,69.699 L87.016,64.351 L80.193,64.351 C88.294,60.621 88.407,50.669 88.407,50.544 L88.407,47.183 L86.032,49.56 C84.219,51.374 82.338,52.22 80.115,52.22 C79.25,52.22 78.372,52.077 77.484,51.88 C77.511,51.505 77.557,51.138 77.576,50.759 C79.672,49.599 81.509,47.45 81.509,43.642 C81.509,34.152 78.34,30.593 75.915,29.253 C75.92,29.259 75.926,29.259 75.934,29.263 C75.711,28.007 75.496,26.9 75.3,25.947 L75.3,15.166 L67.173,7.039 L63.403,7.039 C59.029,3.549 53.215,0.832 45.601,0.832 C37.987,0.834 32.173,3.549 27.799,7.039 L24.029,7.039 L15.902,15.164 L15.899,25.92 C15.703,26.877 15.486,27.996 15.26,29.268 C12.841,30.618 9.693,34.186 9.693,43.643 C9.693,47.45 11.528,49.598 13.624,50.76 C13.621,50.76 13.619,50.758 13.619,50.758 C13.638,51.137 13.687,51.506 13.711,51.881 C12.822,52.08 11.947,52.221 11.083,52.221 C8.859,52.221 6.978,51.377 5.165,49.561 L2.79,47.184 L2.79,50.545 C2.79,50.67 2.904,60.621 11.004,64.352 L4.181,64.352 L6.856,69.7 C-2.517,84.491 -1.12,108.177 11.085,126.481 C4.181,133.385 17.989,140.286 17.989,140.286 C17.989,140.286 17.994,141.368 18.141,142.905 C17.994,143.905 17.989,145.272 17.989,147.188 C17.989,154.09 17.989,154.092 24.888,154.092 L24.893,154.092 C31.798,154.092 31.792,154.092 31.792,147.188 C31.792,145.272 31.787,143.905 31.64,142.905 C31.786,141.368 31.792,140.286 31.792,140.286 C31.792,140.286 45.596,133.386 38.697,126.481 C38.697,126.481 45.596,112.674 45.596,98.868 C45.596,112.675 52.5,126.481 52.5,126.481 L52.532,126.481 C45.633,133.385 59.437,140.286 59.437,140.286 L59.404,140.286 C59.404,140.286 59.409,141.368 59.556,142.905 C59.409,143.905 59.404,145.272 59.404,147.188 C59.404,154.092 59.404,154.092 66.308,154.092 C73.212,154.092 73.212,154.092 73.212,147.188 C73.212,145.272 73.207,143.905 73.06,142.905 C73.207,141.368 73.212,140.286 73.212,140.286 L73.239,140.286 C73.239,140.286 87.048,133.386 80.143,126.481 C80.138,126.473 80.13,126.467 80.122,126.461 L80.122,126.461 Z M19.374,33.385 L19.374,30.301 L21.685,31.071 L19.374,33.385 L19.374,33.385 Z M39.579,11.215 L51.623,11.215 C58.302,12.733 63.056,16.596 66.253,20.483 C61.713,17.378 55.035,14.639 45.594,14.639 C36.156,14.641 29.477,17.381 24.941,20.485 C28.138,16.598 32.897,12.732 39.579,11.215 L39.579,11.215 Z M33.232,50.018 C33.316,49.495 33.509,48.971 33.711,48.887 C33.994,48.772 35.219,49.039 37.712,51.53 L39.68,49.561 C37.81,47.694 35.054,45.327 32.648,46.317 C30.729,47.11 30.446,49.506 30.405,50.309 C28.66,49.62 26.784,49.155 24.887,49.155 C23.006,49.155 21.169,49.608 19.374,50.165 L19.374,40.097 L24.311,45.036 L40.088,45.036 L40.088,35.88 L35.576,33.624 L25.524,23.571 C29.677,20.442 36.117,17.425 45.604,17.423 C55.153,17.423 61.584,20.413 65.711,23.53 L54.588,34.653 L52.501,34.653 L52.501,38.827 L66.31,38.827 L66.31,34.653 L58.764,34.653 L71.823,30.299 L71.823,50.164 C70.029,49.607 68.191,49.154 66.31,49.154 C64.432,49.154 62.553,49.619 60.792,50.32 C60.754,49.529 60.479,47.113 58.549,46.316 C56.154,45.324 53.387,47.693 51.517,49.56 L53.485,51.529 C55.978,49.039 57.222,48.771 57.484,48.886 C57.677,48.966 57.878,49.466 57.968,50.015 C51.838,56.142 48.405,59.507 45.597,59.507 C42.789,59.508 39.356,56.143 33.232,50.018 L33.232,50.018 Z M78.725,43.643 C78.725,47.391 76.254,48.592 74.604,48.975 L74.604,31.702 C76.246,32.633 78.725,35.406 78.725,43.643 L78.725,43.643 Z M16.591,31.697 L16.591,48.968 C14.957,48.581 12.475,47.376 12.475,43.642 C12.475,35.395 14.957,32.627 16.591,31.697 L16.591,31.697 Z M52.499,71.256 L38.696,71.256 C38.696,71.256 31.935,84.754 25.105,64.967 C28.842,64.059 31.093,62.506 33.001,61.158 C34.847,59.853 36.214,58.918 38.5,58.861 C41.191,61.117 43.335,62.291 45.595,62.291 C47.854,62.291 49.998,61.117 52.692,58.861 C54.981,58.914 56.345,59.851 58.193,61.158 C60.101,62.506 62.352,64.058 66.09,64.967 C59.259,84.754 52.499,71.256 52.499,71.256 L52.499,71.256 Z" id="Shape"></path>
                </g>
            </g>
        </g>
    </g>
</svg>