<?xml version="1.0" encoding="UTF-8" standalone="no"?>
<svg width="99px" height="130px" viewBox="0 0 99 130" version="1.1" xmlns="http://www.w3.org/2000/svg" xmlns:xlink="http://www.w3.org/1999/xlink">
    <!-- Generator: Sketch 3.8.3 (29802) - http://www.bohemiancoding.com/sketch -->
    <title>tracer</title>
    <desc>Created with Sketch.</desc>
    <defs></defs>
    <g id="Page-1" stroke="none" stroke-width="1" fill="none" fill-rule="evenodd">
        <g id="HeroIcons_with_names" transform="translate(-216.000000, -296.000000)" fill="#FFFFFF">
            <g id="Layer_1">
                <g id="tracer" transform="translate(216.000000, 296.000000)">
                    <path d="M88.249,96.682 C92.465,90.953 98.831,79.926 98.831,65.543 C98.831,52.715 91.299,47.357 85.025,45.098 L85.025,20.764 L82.649,23.139 C79.732,26.053 76.843,27.625 74.524,28.512 C73.564,26.549 72.36,24.688 70.811,23.139 C68.835,21.162 66.848,19.766 65.095,18.534 C60.636,15.401 57.415,13.138 57.412,3.415 L57.412,0.079 L55.042,2.427 C54.446,3.015 40.872,16.755 47.547,30.898 C43.94,30.423 35.31,28.154 35.31,17.224 C35.31,17.224 28.406,31.031 35.31,37.933 L35.31,38.783 C27.381,40.879 18.973,42.207 8.338,36.697 L3.854,34.373 L6.515,38.666 C6.866,39.232 12.427,48.051 20.221,54.184 C13.746,57.444 7.271,60.473 0.796,60.309 C0.796,60.309 9.468,70.041 23.368,62.932 C23.295,63.088 23.219,63.245 23.145,63.403 C17.534,66.71 12.082,69.52 7.257,71.13 L1.941,72.9 L7.469,73.822 C11.364,74.472 15.367,74.789 19.385,74.875 C17.833,82.572 17.85,91.189 20.154,100.398 L21.504,105.798 L22.855,100.398 C23.151,99.212 23.521,98.06 23.92,96.921 C24.075,97.206 24.216,97.499 24.388,97.775 C28.115,108.375 35.087,119.996 48.148,126.527 C51.72,128.242 53.875,129.056 55.922,129.056 C58.043,129.056 60.04,128.179 63.363,126.519 C76.027,120.185 83.065,109.062 86.99,98.724 C87.449,98.07 87.871,97.391 88.249,96.682 L88.249,96.682 Z M75.239,58.99 C75.478,59.258 75.682,59.525 75.954,59.797 C76.348,60.063 81.067,63.338 84.209,69.699 C82.681,68.523 80.868,67.894 78.77,67.894 C74.342,67.894 69.534,70.501 64.885,73.021 C61.525,74.841 58.053,76.726 56.015,76.726 C53.973,76.726 50.499,74.843 47.142,73.021 C46.381,72.611 45.617,72.199 44.853,71.794 C57.591,68.473 68.212,63.156 75.239,58.99 L75.239,58.99 Z M39.779,73.938 C41.578,74.764 43.413,75.749 45.15,76.692 C49.143,78.858 52.916,80.903 56.021,80.903 C59.117,80.901 62.884,78.858 66.873,76.694 C70.872,74.526 75.4,72.071 78.771,72.071 C80.179,72.071 81.255,72.491 82.158,73.393 C85.33,76.567 86.817,81.446 86.692,86.264 C86.29,89.11 85.469,92.2 84.14,95.516 C83.572,96.442 82.914,97.297 82.159,98.053 C81.256,98.953 80.182,99.373 78.775,99.373 C75.407,99.373 70.881,96.918 66.885,94.748 C62.891,92.582 59.121,90.535 56.022,90.535 C52.923,90.535 49.153,92.582 45.16,94.748 C41.164,96.916 36.636,99.373 33.268,99.373 C31.86,99.373 30.786,98.953 29.884,98.053 C28.15,96.319 26.965,94.049 26.217,91.584 C29.624,84.9 34.595,79.086 39.779,73.938 L39.779,73.938 Z M62.117,124.025 C56.349,126.908 55.871,127.144 49.374,124.025 C39.458,119.064 33.255,110.939 29.376,102.691 C30.545,103.24 31.836,103.548 33.266,103.548 C37.694,103.548 42.502,100.939 47.151,98.417 C50.508,96.595 53.982,94.71 56.021,94.71 C58.06,94.71 61.534,96.595 64.891,98.417 C69.539,100.938 74.348,103.548 78.773,103.548 C79.338,103.548 79.877,103.489 80.404,103.403 L78.553,107.104 L81.619,104.038 C77.62,111.813 71.504,119.332 62.117,124.025 L62.117,124.025 Z" id="Shape"></path>
                    <polygon id="Shape" points="62.923 115.255 49.117 115.261 49.115 112.478 62.921 112.472"></polygon>
                </g>
            </g>
        </g>
    </g>
</svg>