<?xml version="1.0" encoding="UTF-8" standalone="no"?>
<svg width="88px" height="213px" viewBox="0 0 88 213" version="1.1" xmlns="http://www.w3.org/2000/svg" xmlns:xlink="http://www.w3.org/1999/xlink">
    <!-- Generator: Sketch 3.8.3 (29802) - http://www.bohemiancoding.com/sketch -->
    <title>widow</title>
    <desc>Created with Sketch.</desc>
    <defs></defs>
    <g id="Page-1" stroke="none" stroke-width="1" fill="none" fill-rule="evenodd">
        <g id="HeroIcons_with_names" transform="translate(-375.000000, -304.000000)" fill="#FFFFFF">
            <g id="Layer_1">
                <g id="widow" transform="translate(375.000000, 304.000000)">
                    <path d="M87.33,53.512 C87.33,51.606 86.365,49.926 84.897,48.93 C84.745,45.09 84.149,41.555 83.094,39.008 C81.675,35.582 79.726,34.862 78.34,34.862 C78.288,34.862 78.25,34.88 78.198,34.88 C72.519,17.401 62.25,9.388 54.213,7.659 C50.149,3.253 46.321,0.346 43.826,0.346 C37.987,0.346 24.863,16.229 18.467,30.119 L8.929,34.889 C7.581,35.018 5.846,35.885 4.55,39.012 C3.495,41.561 2.9,45.094 2.748,48.932 C1.283,49.93 0.318,51.61 0.318,53.512 C0.318,55.608 1.503,57.416 3.229,58.356 C3.623,61.151 4.246,63.809 5.085,66.112 C4.384,68.88 5.346,72.864 8.072,78.309 C8.947,80.006 11.043,82.518 13.732,82.321 C14.069,83.176 14.542,84.329 14.89,85.007 C21.8,106.144 42.511,113.216 43.389,113.507 L43.831,113.653 L44.271,113.505 C44.698,113.36 49.936,111.534 55.987,107.31 C56.229,114.292 56.237,119.037 56.237,119.091 C56.237,167.122 70.006,202.095 70.146,202.443 L74.159,212.476 L72.819,201.753 C67.534,159.487 70.383,145.683 75.099,122.815 C76.515,115.956 78.119,108.184 79.714,98.61 C81.392,88.538 82.346,78.987 82.561,70.225 C82.86,68.623 82.857,67.252 82.561,66.1 C83.398,63.801 84.02,61.147 84.415,58.36 C86.142,57.418 87.33,55.609 87.33,53.512 L87.33,53.512 Z M80.523,40.072 C81.355,42.082 81.852,44.894 82.048,47.996 C81.96,47.994 81.879,47.973 81.792,47.973 C78.736,47.973 76.252,50.457 76.252,53.512 C76.252,56.467 78.587,58.869 81.507,59.02 C81.151,61.249 80.642,63.342 79.985,65.153 C79.139,63.171 77.174,61.778 74.891,61.778 C71.835,61.778 69.351,64.262 69.351,67.319 C69.351,69.34 70.452,71.096 72.075,72.061 C71.993,72.065 71.917,72.086 71.836,72.086 C70.781,72.086 69.778,71.818 68.835,71.43 C68.479,71.284 68.125,71.141 67.797,70.944 C67.617,70.837 67.46,70.7 67.291,70.581 C66.954,70.339 66.614,70.102 66.323,69.813 C65.916,69.409 65.532,68.973 65.227,68.479 C63.539,65.745 63.667,62.034 65.583,57.989 C65.795,57.878 65.985,57.759 66.189,57.641 C66.406,57.518 66.631,57.397 66.841,57.266 C67.096,57.112 67.335,56.948 67.574,56.787 C67.778,56.652 67.985,56.517 68.175,56.379 C68.399,56.217 68.602,56.051 68.812,55.885 C68.997,55.739 69.187,55.592 69.364,55.442 C69.552,55.28 69.725,55.114 69.902,54.948 C70.073,54.788 70.25,54.63 70.41,54.468 C70.568,54.31 70.712,54.146 70.859,53.984 C71.019,53.81 71.182,53.636 71.329,53.459 C71.457,53.307 71.571,53.154 71.688,53.002 C71.837,52.811 71.992,52.619 72.128,52.426 C72.229,52.285 72.316,52.147 72.407,52.006 C72.549,51.795 72.69,51.586 72.818,51.375 C72.891,51.252 72.954,51.133 73.024,51.01 C73.155,50.78 73.291,50.545 73.41,50.313 C73.457,50.219 73.495,50.129 73.541,50.038 C73.669,49.772 73.797,49.509 73.911,49.241 C73.932,49.198 73.949,49.151 73.968,49.106 C74.979,46.706 75.401,44.342 75.743,42.403 C75.851,41.778 75.955,41.233 76.057,40.731 C76.077,40.637 76.095,40.551 76.115,40.467 C76.449,38.934 76.836,38.024 77.596,37.77 C77.814,37.694 78.05,37.647 78.338,37.647 C79.365,37.645 80.148,39.168 80.523,40.072 L80.523,40.072 Z M66.133,73.203 C63.85,74.689 60.694,76.279 57.63,76.279 L52.3,76.279 C52.683,74.631 53.885,72.162 57.63,72.162 L64.744,72.162 C65.165,72.537 65.616,72.869 66.092,73.174 C66.105,73.182 66.119,73.195 66.133,73.203 L66.133,73.203 Z M61.594,66.895 C61.809,67.766 62.149,68.592 62.57,69.379 L57.631,69.379 C57.164,69.379 56.773,69.463 56.354,69.514 L61.594,66.895 L61.594,66.895 Z M43.827,3.129 C47.151,3.129 57.968,15.158 64.624,27.199 C64.948,27.795 65.263,28.39 65.564,28.98 C65.597,29.039 65.627,29.099 65.657,29.162 C67.416,32.641 68.753,36.006 69.466,38.973 C69.536,39.272 69.618,39.577 69.672,39.868 C69.745,40.225 69.797,40.571 69.849,40.917 C69.958,41.687 70.047,42.45 70.047,43.159 C70.047,44.257 69.942,45.249 69.754,46.165 C69.743,46.222 69.737,46.282 69.724,46.339 C69.526,47.259 69.241,48.099 68.868,48.862 C68.863,48.868 68.86,48.876 68.854,48.883 C68.115,50.387 67.039,51.602 65.707,52.658 C65.579,52.76 65.446,52.857 65.311,52.955 C64.756,53.367 64.156,53.754 63.519,54.121 C63.38,54.199 63.255,54.283 63.112,54.363 C60.619,55.732 57.581,56.853 54.185,58.095 C50.991,59.263 47.395,60.581 43.829,62.314 C40.26,60.582 36.666,59.265 33.473,58.097 C24.264,54.726 17.609,52.288 17.609,43.158 C17.607,29.4 38.915,3.129 43.827,3.129 L43.827,3.129 Z M21.578,73.156 C22.046,72.857 22.489,72.531 22.902,72.162 L30.019,72.162 C33.767,72.162 34.968,74.631 35.352,76.279 L30.019,76.279 C26.958,76.279 23.802,74.689 21.519,73.203 C21.54,73.189 21.557,73.174 21.578,73.156 L21.578,73.156 Z M30.019,69.379 L25.08,69.379 C25.501,68.59 25.841,67.766 26.053,66.891 L31.3,69.514 C30.88,69.463 30.489,69.379 30.019,69.379 L30.019,69.379 Z M7.123,40.078 C7.501,39.17 8.284,37.644 9.311,37.644 C10.904,37.644 11.247,38.607 11.91,42.394 C12.701,46.91 13.886,53.693 22.063,57.988 C23.98,62.033 24.11,65.744 22.422,68.478 C22.117,68.972 21.734,69.408 21.326,69.812 C21.033,70.103 20.693,70.339 20.356,70.582 C20.188,70.701 20.032,70.838 19.853,70.943 C19.529,71.136 19.179,71.281 18.831,71.425 C17.879,71.818 16.871,72.085 15.811,72.085 C15.732,72.085 15.656,72.064 15.58,72.064 C17.203,71.095 18.304,69.339 18.304,67.318 C18.304,64.261 15.82,61.777 12.764,61.777 C10.475,61.777 8.507,63.172 7.665,65.156 C7.007,63.345 6.498,61.254 6.14,59.021 C9.062,58.873 11.4,56.468 11.4,53.511 C11.4,50.456 8.915,47.972 5.86,47.972 C5.77,47.972 5.689,47.993 5.599,47.999 C5.793,44.898 6.291,42.088 7.123,40.078 L7.123,40.078 Z M43.824,110.703 C40.823,109.562 23.459,102.256 17.46,83.951 C16.854,82.738 15.921,80.265 15.911,80.24 L15.424,78.949 L14.13,79.422 C12.2,80.137 10.564,77.063 10.556,77.049 C9.491,74.918 8.816,73.211 8.368,71.793 C10.371,73.773 13.014,74.869 15.811,74.869 C16.741,74.869 17.657,74.744 18.535,74.514 C21.49,76.686 25.698,79.063 30.02,79.063 L38.316,79.063 L38.316,77.672 C38.316,76.09 37.748,73.75 36.171,71.949 L36.301,72.015 C36.502,72.115 36.714,72.161 36.924,72.161 C37.432,72.161 37.924,71.878 38.169,71.391 C38.511,70.703 38.233,69.87 37.546,69.524 L26.372,63.934 C26.35,61.963 25.872,59.858 24.955,57.686 C27.274,58.782 29.837,59.729 32.515,60.707 C35.986,61.98 39.578,63.293 43.205,65.109 L43.828,65.418 L44.45,65.109 C48.079,63.293 51.67,61.98 55.141,60.707 C57.816,59.728 60.376,58.783 62.69,57.687 C61.776,59.859 61.3,61.966 61.279,63.937 L50.107,69.523 C49.419,69.869 49.142,70.703 49.484,71.39 C49.729,71.876 50.221,72.16 50.729,72.16 C50.938,72.16 51.151,72.113 51.352,72.014 L51.479,71.948 C49.906,73.749 49.337,76.089 49.337,77.671 L49.337,79.062 L57.63,79.062 C61.955,79.062 66.163,76.685 69.115,74.513 C69.993,74.743 70.906,74.868 71.836,74.868 C74.636,74.868 77.273,73.772 79.275,71.794 C79.153,72.181 79.031,72.569 78.879,72.982 C78.784,73.244 78.658,73.535 78.547,73.814 C78.403,74.173 78.268,74.527 78.099,74.906 C77.797,75.595 77.463,76.324 77.066,77.115 C76.977,77.318 76.84,77.57 76.683,77.826 C76.634,77.91 76.569,77.996 76.512,78.082 C76.387,78.271 76.256,78.459 76.11,78.639 C76.039,78.727 75.96,78.799 75.886,78.881 C75.742,79.039 75.593,79.18 75.438,79.301 C75.34,79.379 75.24,79.43 75.136,79.489 C74.956,79.589 74.778,79.678 74.604,79.686 C74.579,79.69 74.563,79.698 74.539,79.698 C74.356,79.692 74.169,79.637 73.96,79.524 L72.47,78.698 L71.959,80.323 C71.948,80.358 70.886,83.723 70.078,85.495 C69.708,86.485 69.298,87.431 68.86,88.354 C68.743,88.6 68.613,88.838 68.49,89.083 C68.142,89.78 67.784,90.464 67.4,91.122 C67.275,91.335 67.145,91.546 67.017,91.759 C66.593,92.454 66.158,93.134 65.704,93.786 C65.609,93.923 65.512,94.061 65.416,94.196 C64.895,94.923 64.361,95.626 63.81,96.298 C63.764,96.359 63.715,96.415 63.669,96.472 C63.063,97.204 62.442,97.908 61.81,98.579 C61.801,98.587 61.79,98.599 61.783,98.606 C61.128,99.295 60.462,99.956 59.791,100.585 C59.788,100.587 59.785,100.593 59.779,100.595 C59.108,101.224 58.431,101.82 57.755,102.382 C57.744,102.39 57.735,102.398 57.725,102.405 C51.585,107.512 45.49,110.063 43.824,110.703 L43.824,110.703 Z" id="Shape"></path>
                    <path d="M43.827,59.049 C48.782,59.049 52.816,55.016 52.816,50.061 C52.816,45.104 48.782,41.071 43.827,41.071 C38.869,41.071 34.835,45.104 34.835,50.061 C34.835,55.016 38.869,59.049 43.827,59.049 L43.827,59.049 Z" id="Shape"></path>
                    <path d="M26.569,44.549 C29.238,44.549 31.41,42.377 31.41,39.705 C31.41,37.033 29.238,34.861 26.569,34.861 C23.897,34.861 21.725,37.033 21.725,39.705 C21.725,42.377 23.897,44.549 26.569,44.549 L26.569,44.549 Z" id="Shape"></path>
                    <path d="M61.082,44.549 C63.755,44.549 65.927,42.377 65.927,39.705 C65.927,37.033 63.755,34.861 61.082,34.861 C58.41,34.861 56.238,37.033 56.238,39.705 C56.238,42.377 58.41,44.549 61.082,44.549 L61.082,44.549 Z" id="Shape"></path>
                    <polygon id="Shape" points="36.923 96.795 50.729 96.795 50.729 99.578 36.923 99.578"></polygon>
                </g>
            </g>
        </g>
    </g>
</svg>