<?xml version="1.0" encoding="UTF-8" standalone="no"?>
<svg width="88px" height="114px" viewBox="0 0 88 114" version="1.1" xmlns="http://www.w3.org/2000/svg" xmlns:xlink="http://www.w3.org/1999/xlink">
    <!-- Generator: Sketch 3.8.3 (29802) - http://www.bohemiancoding.com/sketch -->
    <title>winston</title>
    <desc>Created with Sketch.</desc>
    <defs></defs>
    <g id="Page-1" stroke="none" stroke-width="1" fill="none" fill-rule="evenodd">
        <g id="HeroIcons_with_names" transform="translate(-473.000000, -300.000000)" fill="#FFFFFF">
            <g id="Layer_1">
                <g id="winston" transform="translate(473.000000, 300.000000)">
                    <path d="M87.406,44.145 L87.406,28.61 L86.794,27.999 C79.368,20.571 71.83,20.481 71.512,20.481 L71.3,20.481 C70.169,14.34 64.611,8.764 64.611,8.764 C64.611,10.756 64.027,12.16 63.209,13.17 C55.532,6.434 47.508,2.107 44.523,0.615 L43.901,0.302 L43.278,0.615 C40.291,2.109 32.269,6.433 24.593,13.17 C23.775,12.16 23.19,10.756 23.19,8.764 C23.19,8.764 17.631,14.34 16.501,20.481 L16.286,20.481 C15.969,20.481 8.433,20.569 1.007,27.997 L0.396,28.608 L0.399,44.143 L8.023,51.776 C8.143,55.751 8.765,66.188 11.941,73.518 C10.402,83.68 10.141,91.709 13.34,96.971 C12.587,101.682 16.289,105.407 16.289,105.407 C16.289,105.407 16.295,103.596 16.621,101.294 C18.537,103.763 20.122,105.23 22.207,106.392 L29.108,113.292 C29.375,113.56 29.73,113.7 30.092,113.7 C30.271,113.7 30.453,113.665 30.624,113.595 C31.144,113.38 31.483,112.872 31.483,112.31 L31.483,109.841 C31.736,109.919 31.983,109.995 32.257,110.079 C35.177,110.972 38.814,112.081 43.459,113.63 L43.899,113.776 L44.339,113.63 C48.851,112.126 52.399,111.034 55.252,110.155 C55.636,110.038 55.956,109.938 56.313,109.827 L56.313,112.309 C56.313,112.872 56.653,113.379 57.172,113.594 C57.343,113.664 57.525,113.699 57.704,113.699 C58.065,113.699 58.422,113.558 58.688,113.291 L65.589,106.391 C65.619,106.36 65.63,106.323 65.654,106.289 C67.676,105.103 69.193,103.596 71.139,101.027 C71.506,103.457 71.506,105.406 71.506,105.406 C71.506,105.406 75.36,101.547 74.422,96.715 C77.991,90.643 77.309,81.559 76.004,73.135 C79.043,65.83 79.652,55.678 79.772,51.776 L87.406,44.145 L87.406,44.145 Z M73.6,24.961 C75.799,25.463 79.445,26.803 83.231,30.357 L83.231,42.416 L78.988,46.66 L73.6,35.885 L73.6,24.961 L73.6,24.961 Z M18.376,29.984 L30.717,23.814 C30.85,23.748 30.973,23.658 31.078,23.552 L37.979,16.652 C38.006,16.627 40.716,13.99 44.158,13.99 C46.15,13.99 48.056,14.885 49.82,16.65 L56.722,23.552 C56.827,23.657 56.95,23.747 57.083,23.814 L69.424,29.984 L69.424,33.775 L58.328,28.226 C57.792,27.96 57.135,28.072 56.71,28.497 C56.678,28.53 56.213,28.999 49.819,35.39 C48.052,37.156 46.147,38.052 44.154,38.052 C40.714,38.052 38.006,35.415 37.981,35.39 L31.077,28.488 C30.81,28.22 30.455,28.08 30.093,28.08 C29.881,28.08 29.669,28.127 29.471,28.226 L18.375,33.775 L18.375,29.984 L18.376,29.984 Z M18.362,36.895 L29.819,31.166 L36.014,37.359 C36.156,37.5 39.539,40.836 44.155,40.836 C46.912,40.836 49.48,39.666 51.788,37.359 C55.037,34.111 56.891,32.259 57.918,31.134 L69.439,36.894 L71.512,41.044 L71.512,50.181 L76.079,50.185 L76.201,50.429 L70.935,55.691 L64.607,55.691 L50.861,55.691 L43.897,55.691 L37.055,55.691 L16.864,55.691 L11.596,50.423 L11.712,50.185 L16.287,50.181 L16.287,41.04 L18.362,36.895 L18.362,36.895 Z M63.216,58.574 L63.216,62.693 L52.194,62.693 L52.194,58.574 L63.216,58.574 L63.216,58.574 Z M35.609,58.574 L35.609,62.693 L24.584,62.693 L24.584,58.574 L35.609,58.574 L35.609,58.574 Z M4.569,30.355 C8.359,26.798 12.004,25.46 14.198,24.959 L14.2,35.881 L8.81,46.656 L4.572,42.414 L4.569,30.355 L4.569,30.355 Z M10.896,53.662 L15.068,57.836 L21.26,76.4 L16.886,76.4 C12.429,71.365 11.222,59.561 10.896,53.662 L10.896,53.662 Z M28.699,108.947 L25.158,105.406 L28.699,101.863 L28.702,105.572 L28.699,108.947 L28.699,108.947 Z M59.098,108.947 L59.098,101.863 L62.64,105.406 L59.098,108.947 L59.098,108.947 Z M60,98.83 L58.69,97.519 C58.293,97.123 57.689,97.005 57.173,97.218 C56.653,97.433 56.314,97.941 56.314,98.503 L56.314,99.808 C56.206,99.812 56.085,99.839 55.98,99.839 C53.685,99.839 51.405,99.077 49.198,98.343 C47.298,97.71 45.504,97.113 43.897,97.113 C42.29,97.113 40.497,97.711 38.596,98.342 C36.392,99.078 34.111,99.84 31.817,99.84 C31.712,99.84 31.591,99.813 31.483,99.809 L31.483,98.504 C31.483,97.941 31.143,97.434 30.624,97.219 C30.107,97.006 29.507,97.121 29.107,97.52 L27.792,98.836 C26.797,98.301 25.774,97.512 24.753,96.297 C25.006,94.658 25.547,93.41 26.4,92.623 C27.389,91.709 28.879,91.266 30.956,91.266 C33.101,91.266 35.522,91.729 37.865,92.176 C40.064,92.596 42.141,92.992 43.908,92.992 C45.667,92.992 47.738,92.596 49.934,92.176 C52.275,91.729 54.697,91.266 56.841,91.266 C59.711,91.266 62.392,91.938 63.052,96.26 C62.028,97.494 61.001,98.293 60,98.83 L60,98.83 Z M65.062,93.264 C63.744,90.112 61.017,88.483 56.842,88.483 C54.437,88.483 51.881,88.969 49.413,89.442 C47.35,89.835 45.4,90.21 43.903,90.21 C42.402,90.21 40.453,89.835 38.387,89.442 C35.918,88.969 33.364,88.483 30.955,88.483 C28.146,88.483 26.037,89.169 24.51,90.579 C23.733,91.296 23.159,92.222 22.719,93.28 C21.012,90.2 19.381,85.696 17.978,79.184 L25.12,79.184 L18.218,58.475 L21.801,58.479 L21.801,65.479 L38.393,65.479 L38.393,58.475 L49.411,58.475 L49.411,65.479 L66,65.479 L66,58.475 L69.582,58.475 L62.678,79.186 L69.791,79.186 C68.384,85.682 66.758,90.189 65.062,93.264 L65.062,93.264 Z M70.911,76.402 L66.538,76.402 L72.727,57.836 L76.902,53.664 C76.576,59.563 75.369,71.367 70.911,76.402 L70.911,76.402 Z" id="Shape"></path>
                    <path d="M56.85,66.662 C54.45,65.668 51.688,68.039 49.818,69.908 C46.844,72.883 45.05,74.676 43.901,74.676 C42.751,74.676 40.96,72.885 37.98,69.908 C36.113,68.039 33.343,65.67 30.951,66.662 C28.765,67.568 28.703,70.555 28.703,70.892 L31.487,70.898 C31.492,70.177 31.761,69.337 32.016,69.234 C32.278,69.121 33.52,69.384 36.02,71.884 C39.739,75.599 41.819,77.456 43.901,77.456 C45.98,77.456 48.065,75.597 51.787,71.876 C54.279,69.384 55.53,69.12 55.785,69.233 C56.041,69.337 56.307,70.176 56.312,70.891 L59.096,70.891 C59.096,70.555 59.032,67.568 56.85,66.662 L56.85,66.662 Z" id="Shape"></path>
                </g>
            </g>
        </g>
    </g>
</svg>