<?xml version="1.0" encoding="UTF-8" standalone="no"?>
<svg width="76px" height="106px" viewBox="0 0 76 106" version="1.1" xmlns="http://www.w3.org/2000/svg" xmlns:xlink="http://www.w3.org/1999/xlink">
    <!-- Generator: Sketch 3.8.3 (29802) - http://www.bohemiancoding.com/sketch -->
    <title>zarya</title>
    <desc>Created with Sketch.</desc>
    <defs></defs>
    <g id="Page-1" stroke="none" stroke-width="1" fill="none" fill-rule="evenodd">
        <g id="HeroIcons_with_names" transform="translate(-584.000000, -306.000000)" fill="#FFFFFF">
            <g id="Layer_1">
                <g id="zarya" transform="translate(584.000000, 306.000000)">
                    <path d="M63.78,24.914 C69.009,20.83 71.678,15.65 71.858,15.293 L75.674,7.658 L69.629,13.685 C69.588,13.728 66.875,16.378 63.298,18.283 C64.182,16.808 64.766,15.672 64.956,15.293 L68.718,7.768 L62.73,13.684 C62.703,13.709 59.993,16.348 56.551,16.348 C54.559,16.348 52.654,15.453 50.889,13.688 C49.438,12.235 47.076,11.469 44.058,11.469 C43.314,11.469 42.552,11.514 41.788,11.598 C42.976,9.799 43.96,8.776 43.984,8.75 L46.34,6.375 L42.997,6.375 C35.518,6.377 27.759,8.438 22.14,12.725 C22.423,11.225 22.847,9.762 23.535,8.389 L27.368,0.721 L21.306,6.782 C20.901,7.188 14.306,13.907 12.498,22.762 C10.326,25.471 7.089,30.354 7.092,35.379 L7.094,40.692 L7.083,52.553 L7.144,52.492 C7.152,52.82 7.157,53.123 7.168,53.492 C6.901,53.293 6.613,53.127 6.301,53.004 C4.591,52.332 2.666,53.039 0.598,55.104 L0.19,55.512 L0.19,56.088 C0.19,63.16 0.19,70.471 7.503,77.783 C8.096,78.375 8.811,78.459 9.4,78.41 C10.596,84.961 12.186,89.228 14.241,91.418 C21.499,105.803 29.069,105.803 35.751,105.803 C43.102,105.803 50.698,105.803 57.954,91.418 C60.009,89.229 61.599,84.959 62.795,78.41 C63.399,78.459 64.103,78.375 64.692,77.783 C71.92,70.554 72.004,56.676 72.004,56.088 L72.004,55.512 L71.597,55.104 C69.77,53.278 68.096,52.579 66.576,52.895 C69.958,43.534 67.117,37.706 65.546,35.459 C71.912,28.545 72.004,21.867 72.004,21.574 L72.004,18.215 L69.629,20.59 C67.607,22.613 65.604,23.955 63.78,24.914 L63.78,24.914 Z M67.028,55.59 C67.368,55.453 68.104,55.674 69.208,56.67 C69.11,59.27 68.379,69.93 62.918,75.619 C62.828,75.599 62.726,75.572 62.644,75.553 C62.367,75.481 62.054,75.399 61.711,75.389 L60.493,75.35 L60.295,76.551 C58.876,85.072 57.079,88.362 55.823,89.619 L55.562,89.98 C49.046,103.019 42.884,103.019 35.751,103.019 C29.273,103.019 23.152,103.019 16.634,89.98 L16.373,89.619 C15.117,88.361 13.32,85.072 11.901,76.551 L11.702,75.35 L10.485,75.389 C10.142,75.399 9.83,75.481 9.555,75.553 C9.473,75.573 9.367,75.6 9.278,75.619 C3.162,69.381 2.979,63.201 2.974,56.683 C3.96,55.792 4.792,55.398 5.285,55.595 C6.315,55.999 7.062,58.486 7.41,60.872 C7.399,61.509 7.378,62.091 7.378,62.757 L7.378,63.011 L7.611,62.99 C7.614,63.015 7.614,63.039 7.617,63.062 L10.397,62.914 C10.386,62.674 10.368,62.268 10.321,61.75 C10.3,61.385 10.281,61.043 10.261,60.686 C10.645,55.604 12.574,43.672 22.289,43.672 L24.807,43.672 C30.119,47.725 35.229,50.309 35.476,50.432 L37.491,51.438 L37.491,49.792 C39.151,48.899 43.036,46.706 47.061,43.673 L48.513,43.673 L48.513,43.726 L48.564,43.673 L49.905,43.673 C51.761,43.673 53.31,44.152 54.653,44.898 C55.377,47.127 55.415,48.996 55.415,49.191 L55.436,54.699 L42.998,54.699 L42.998,57.482 L56.807,57.482 L56.807,54.699 L55.606,54.699 L58.052,49.81 C58.244,49.425 58.394,49.054 58.558,48.677 C62.224,54.359 62.317,62.866 62.317,62.995 L62.355,62.995 L65.098,63.095 C65.161,62.228 65.209,61.38 65.244,60.56 C65.522,58.156 66.18,55.939 67.028,55.59 L67.028,55.59 Z" id="Shape"></path>
                    <polygon id="Shape" points="29.195 89.213 43.002 89.213 43.002 91.996 29.195 91.996"></polygon>
                    <path d="M41.609,69.895 L41.609,71.288 L49.906,71.288 C56.465,71.288 58.199,65.862 58.199,62.993 L58.199,61.602 L49.903,61.602 C43.344,61.602 41.609,67.025 41.609,69.895 L41.609,69.895 Z M49.906,68.504 L44.572,68.504 C44.956,66.854 46.154,64.385 49.903,64.385 L55.236,64.385 C54.854,66.033 53.654,68.504 49.906,68.504 L49.906,68.504 Z" id="Shape"></path>
                    <path d="M30.587,69.895 C30.587,67.026 28.854,61.602 22.294,61.602 L15.691,61.602 L18.436,57.481 L29.193,57.481 L29.193,54.698 L22.87,54.698 L21.323,53.151 L23.452,49.96 L21.136,48.415 L19.318,51.144 L16.375,48.205 L14.406,50.172 L17.742,53.508 L16.948,54.699 L15.393,54.699 L15.393,57.031 L7.33,69.125 L9.645,70.67 L14.074,64.027 C14.446,66.996 16.449,71.289 22.291,71.289 L30.587,71.289 L30.587,69.895 L30.587,69.895 Z M22.291,68.504 C18.543,68.504 17.344,66.033 16.961,64.385 L22.294,64.385 C26.042,64.385 27.241,66.854 27.624,68.504 L22.291,68.504 L22.291,68.504 Z" id="Shape"></path>
                </g>
            </g>
        </g>
    </g>
</svg>