<?xml version="1.0" encoding="UTF-8" standalone="no"?>
<svg width="74px" height="101px" viewBox="0 0 74 101" version="1.1" xmlns="http://www.w3.org/2000/svg" xmlns:xlink="http://www.w3.org/1999/xlink">
    <!-- Generator: Sketch 3.8.3 (29802) - http://www.bohemiancoding.com/sketch -->
    <title>zeniata</title>
    <desc>Created with Sketch.</desc>
    <defs></defs>
    <g id="Page-1" stroke="none" stroke-width="1" fill="none" fill-rule="evenodd">
        <g id="HeroIcons_with_names" transform="translate(-704.000000, -315.000000)" fill="#FFFFFF">
            <g id="Layer_1">
                <g id="zeniata" transform="translate(704.000000, 315.000000)">
                    <path d="M23.061,52.914 C23.596,52.914 24.129,52.709 24.537,52.301 L31.441,45.395 C32.256,44.579 32.256,43.256 31.441,42.444 C30.626,41.628 29.305,41.628 28.489,42.444 L21.585,49.35 C20.77,50.166 20.77,51.489 21.585,52.301 C21.992,52.709 22.525,52.914 23.061,52.914 L23.061,52.914 Z" id="Shape"></path>
                    <path d="M49.196,52.301 C49.604,52.709 50.136,52.914 50.673,52.914 C51.205,52.914 51.74,52.709 52.149,52.301 C52.964,51.488 52.964,50.166 52.149,49.35 L45.245,42.444 C44.432,41.63 43.111,41.626 42.293,42.444 C41.478,43.257 41.478,44.579 42.293,45.395 L49.196,52.301 L49.196,52.301 Z" id="Shape"></path>
                    <path d="M29.959,18.373 C31.096,18.373 32.02,17.447 32.02,16.312 C32.02,15.175 31.096,14.251 29.959,14.251 C28.823,14.251 27.898,15.175 27.898,16.312 C27.898,17.447 28.823,18.373 29.959,18.373 L29.959,18.373 Z" id="Shape"></path>
                    <path d="M36.863,18.373 C38,18.373 38.924,17.447 38.924,16.312 C38.924,15.175 38,14.251 36.863,14.251 C35.727,14.251 34.803,15.175 34.803,16.312 C34.804,17.447 35.728,18.373 36.863,18.373 L36.863,18.373 Z" id="Shape"></path>
                    <path d="M29.957,25.273 C31.093,25.273 32.017,24.349 32.017,23.212 C32.017,22.077 31.093,21.151 29.957,21.151 C28.82,21.151 27.896,22.077 27.896,23.212 C27.896,24.35 28.82,25.273 29.957,25.273 L29.957,25.273 Z" id="Shape"></path>
                    <path d="M36.861,25.273 C37.997,25.273 38.922,24.349 38.922,23.212 C38.922,22.077 37.997,21.151 36.861,21.151 C35.724,21.151 34.8,22.077 34.8,23.212 C34.801,24.35 35.725,25.273 36.861,25.273 L36.861,25.273 Z" id="Shape"></path>
                    <path d="M29.957,32.178 C31.093,32.178 32.017,31.254 32.017,30.117 C32.017,28.982 31.093,28.056 29.957,28.056 C28.82,28.056 27.896,28.982 27.896,30.117 C27.896,31.254 28.82,32.178 29.957,32.178 L29.957,32.178 Z" id="Shape"></path>
                    <path d="M36.861,32.178 C37.997,32.178 38.922,31.254 38.922,30.117 C38.922,28.982 37.997,28.056 36.861,28.056 C35.724,28.056 34.8,28.982 34.8,30.117 C34.801,31.254 35.725,32.178 36.861,32.178 L36.861,32.178 Z" id="Shape"></path>
                    <path d="M43.766,18.373 C44.902,18.373 45.827,17.447 45.827,16.312 C45.827,15.175 44.902,14.251 43.766,14.251 C42.629,14.251 41.705,15.175 41.705,16.312 C41.705,17.447 42.629,18.373 43.766,18.373 L43.766,18.373 Z" id="Shape"></path>
                    <path d="M43.763,25.273 C44.899,25.273 45.824,24.349 45.824,23.212 C45.824,22.077 44.899,21.151 43.763,21.151 C42.626,21.151 41.702,22.077 41.702,23.212 C41.702,24.35 42.626,25.273 43.763,25.273 L43.763,25.273 Z" id="Shape"></path>
                    <path d="M43.763,32.178 C44.899,32.178 45.824,31.254 45.824,30.117 C45.824,28.982 44.899,28.056 43.763,28.056 C42.626,28.056 41.702,28.982 41.702,30.117 C41.702,31.254 42.626,32.178 43.763,32.178 L43.763,32.178 Z" id="Shape"></path>
                    <path d="M71.383,55.643 L68.32,55.639 C71.685,50 73.461,43.641 73.461,37.02 C73.461,16.84 57.042,0.422 36.862,0.422 C16.681,0.422 0.263,16.84 0.263,37.02 C0.263,43.672 2.022,50.032 5.357,55.643 L2.345,55.645 C1.193,55.647 0.26,56.581 0.26,57.733 L0.26,71.536 C0.26,72.091 0.48,72.622 0.871,73.015 C1.263,73.406 1.793,73.624 2.348,73.624 L2.35,73.624 L7.863,73.62 L7.863,78.436 C7.863,78.805 8.01,79.159 8.271,79.418 L28.979,100.127 C29.24,100.387 29.593,100.535 29.962,100.535 L43.768,100.535 C44.138,100.535 44.492,100.387 44.752,100.127 L65.463,79.418 C65.724,79.158 65.87,78.805 65.87,78.436 L65.87,73.618 L71.377,73.622 L71.38,73.622 C71.935,73.622 72.465,73.401 72.857,73.011 C73.248,72.618 73.468,72.089 73.468,71.534 L73.468,57.73 C73.468,56.578 72.535,55.645 71.383,55.643 L71.383,55.643 Z M36.861,4.596 C54.739,4.596 69.284,19.143 69.284,37.02 C69.284,44.067 67.025,50.793 62.752,56.469 L62.654,56.77 C62.562,56.946 62.508,57.133 62.469,57.329 L62.333,57.741 L62.387,64.643 L62.387,64.643 L62.387,64.745 L50.095,77.044 L45.159,77.044 L45.159,64.63 C45.159,63.86 44.536,63.237 43.766,63.237 L29.96,63.237 C29.19,63.237 28.568,63.86 28.568,64.63 L28.568,77.044 L23.631,77.044 L11.336,64.745 L11.336,64.626 L11.336,64.626 L11.334,57.728 L11.334,57.724 C11.331,57.318 11.179,56.943 10.961,56.607 L10.915,56.472 C6.675,50.841 4.435,44.115 4.435,37.021 C4.438,19.143 18.983,4.596 36.861,4.596 L36.861,4.596 Z M43.191,97.75 L30.538,97.75 L10.646,77.859 L10.646,73.062 C11.064,72.681 11.338,72.142 11.338,71.531 L11.338,68.681 L22.072,79.417 C22.334,79.679 22.686,79.825 23.056,79.825 L29.96,79.825 C30.73,79.825 31.352,79.204 31.352,78.434 L31.352,66.02 L42.374,66.02 L42.374,78.434 C42.374,79.204 42.997,79.825 43.766,79.825 L50.671,79.825 C51.04,79.825 51.394,79.679 51.654,79.417 L62.385,68.683 L62.385,71.527 C62.385,72.142 62.659,72.679 63.084,73.062 L63.084,77.859 L43.191,97.75 L43.191,97.75 Z" id="Shape"></path>
                </g>
            </g>
        </g>
    </g>
</svg>